<?xml version="1.0" encoding="UTF-8" standalone="no"?>
<!-- Created with Inkscape (http://www.inkscape.org/) -->

<svg
   width="179.99998mm"
   height="180mm"
   viewBox="0 0 179.99999 179.99999"
   version="1.1"
   id="svg1"
   inkscape:version="1.3 (0e150ed6c4, 2023-07-21)"
   sodipodi:docname="Leeuwgod Fanta ZW (objecttekst).svg"
   xml:space="preserve"
   inkscape:export-filename="Leeuwgod plain.svg"
   inkscape:export-xdpi="169.33"
   inkscape:export-ydpi="169.33"
   xmlns:inkscape="http://www.inkscape.org/namespaces/inkscape"
   xmlns:sodipodi="http://sodipodi.sourceforge.net/DTD/sodipodi-0.dtd"
   xmlns:xlink="http://www.w3.org/1999/xlink"
   xmlns="http://www.w3.org/2000/svg"
   xmlns:svg="http://www.w3.org/2000/svg"
   xmlns:rdf="http://www.w3.org/1999/02/22-rdf-syntax-ns#"
   xmlns:cc="http://creativecommons.org/ns#"
   xmlns:dc="http://purl.org/dc/elements/1.1/"><title
     id="title185">Nero ex Machina</title><sodipodi:namedview
     id="namedview1"
     pagecolor="#ffffff"
     bordercolor="#000000"
     borderopacity="0.25"
     inkscape:showpageshadow="2"
     inkscape:pageopacity="0.0"
     inkscape:pagecheckerboard="false"
     inkscape:deskcolor="#d1d1d1"
     inkscape:document-units="mm"
     inkscape:zoom="1.2472121"
     inkscape:cx="152.33977"
     inkscape:cy="390.87177"
     inkscape:window-width="1600"
     inkscape:window-height="897"
     inkscape:window-x="246"
     inkscape:window-y="262"
     inkscape:window-maximized="0"
     inkscape:current-layer="svg1"
     showgrid="true"
     showguides="true"><inkscape:grid
       id="grid2"
       units="mm"
       originx="-904.45106"
       originy="-221.62971"
       spacingx="0.99999998"
       spacingy="1"
       empcolor="#0099e5"
       empopacity="0.30196078"
       color="#0099e5"
       opacity="0.14901961"
       empspacing="5"
       dotted="false"
       gridanglex="30"
       gridanglez="30"
       visible="true" /></sodipodi:namedview><defs
     id="defs1"><color-profile
       name="_65BDL3511Q"
       xlink:href="file:///Library/ColorSync/Profiles/Displays/65BDL3511Q-F177A074-BBFF-EEF1-0857-D6964E3302DB.icc"
       id="color-profile1" /></defs><g
     id="g149-7"
     inkscape:label="Greek-O"
     transform="matrix(0.28714523,0,0,0.26862654,-514.4648,57.094027)"
     style="display:inline;fill:#000000"><path
       id="path3-5-1-9"
       style="display:inline;fill:#000000;fill-opacity:1;stroke-width:9.55022"
       inkscape:label="path3"
       d="m 1791.6023,123.62763 c 1.0097,103.6704 43.0602,189.97406 109.4206,253.20105 51.8508,48.25842 124.257,80.72381 204.1252,80.70589 128.9076,-0.83867 233.523,-79.44562 283.7415,-192.29077 20.9925,-44.54287 29.6008,-93.82728 29.6056,-142.48748 0.01,-68.629624 -18.5846,-129.3673278 -48.2546,-179.391444 -63.2097,-106.959616 -163.7027,-156.174796 -263.4176,-155.904316 -82.3649,-0.20829 -154.6701,32.60036 -210.2348,83.23772 -72.8502,63.760311 -105.6847,155.155629 -104.9859,252.92935 z m 340.8048,-291.36416 h -24.5113 v -15.68642 h -4.7909 v 20.82979 h 33.4671 c 1.1798,-14.41428 2.5567,-28.80947 3.7415,-43.22326 20.0024,1.4096 39.866,6.58516 58.4727,13.39121 -3.8439,12.02879 -8.3579,25.36043 -12.3448,37.32526 -7.0535,-2.23569 -14.1071,-4.47137 -21.1607,-6.70706 0.5235,-4.59555 1.0452,-7.53567 1.5699,-12.13107 -1.302,-0.23439 -4.5594,-0.93657 -4.5594,-0.93657 0,0 -2.9942,11.37359 -3.0229,17.31932 10.3522,2.92168 20.7135,5.80518 31.1313,8.45168 4.0188,-12.77649 10.9463,-28.20551 14.9648,-40.98207 20.2068,6.75289 34.8276,15.40687 51.2053,24.87771 -6.5861,11.06507 -10.2893,24.16458 -18.389,34.27845 l -20.1054,-12.22519 c 1.921,-3.2877 3.1344,-6.95776 4.4527,-10.64525 l -2.9101,-2.49233 c -1.1821,1.86488 -5.0634,9.61616 -7.2826,15.33481 7.2033,5.93472 23.5241,14.7793 27.63,16.97194 8.0903,-11.16225 14.0201,-23.81135 20.5632,-35.93897 9.9079,-0.0242 38.2952,24.53392 48.0037,36.04668 -7.9878,8.19895 -13.1747,16.86198 -22.8701,26.484731 -6.1956,-3.629611 -12.7911,-8.918171 -18.3976,-13.581811 2.0212,-3.6624 4.4743,-7.83636 6.6885,-11.45986 -1.0166,-1.08864 -2.035,-2.17554 -3.0507,-3.26522 -3.1247,4.49744 -7.6809,9.89706 -10.1733,14.71324 2.1648,2.99241 16.7388,16.857284 25.281,21.738467 10.1678,-9.116377 19.2703,-21.654897 28.3948,-32.277567 12.3634,15.95092 28.5818,29.448946 37.8407,47.67094 -8.5404,5.017911 -18.7343,18.302901 -27.9774,21.139941 -2.8608,-0.510718 -12.1146,-14.710554 -13.7078,-18.035407 1.5431,-3.448162 5.4987,-5.957529 8.536,-7.814982 -1.7074,-1.846875 -3.413,-3.695542 -5.119,-5.543983 -3.7646,4.292373 -7.5318,8.58218 -11.2954,12.875655 7.0945,8.182353 11.5793,19.454159 20.2998,26.160539 11.7673,-5.112614 22.5279,-15.798773 32.7054,-23.853775 9.7843,14.924125 17.995,26.678265 29.4194,52.513707 -8.2982,5.456158 -22.2944,12.947582 -32.2857,18.0719396 -3.4148,-7.5262351 -6.8294,-15.0524696 -10.2441,-22.5787056 3.5699,-2.572607 6.5867,-4.551257 10.1558,-7.124921 -1.0879,-1.209503 -1.6217,-3.011489 -2.7092,-4.22151 -4.8627,3.073304 -9.7248,6.147963 -14.5854,9.224896 5.1956,10.359131 8.3292,19.1170846 15.1288,31.117692 10.3529,-3.7892882 26.0431,-13.1194208 36.2845,-18.108605 9.3701,19.5838913 17.6792,49.480389 19.0518,61.033476 -11.4198,2.625529 -22.8395,5.251061 -34.2591,7.87659 -2.1265,-8.365745 -4.6238,-16.433987 -5.6254,-24.642828 2.2116,-0.02625 8.4304,-1.076964 10.393,-2.438399 1.1819,-0.741634 0.095,-5.772303 -1.6581,-5.113795 -5.5861,0.567434 -15.3402,4.899958 -15.335,5.063599 3.0234,10.745672 5.317,21.713776 7.8681,32.582795 1.3415,2.924397 33.5293,-6.2739 40.0284,-6.57568 3.6509,5.685544 5.986,38.140402 7.1408,60.820141 -11.6068,0.50903 -23.2137,1.01804 -34.8205,1.52708 -1.3001,-8.78304 -3.0477,-17.54512 -3.1235,-26.451323 h 12.209 V 88.50797 h -16.1355 c -1.2893,2.354577 0.7844,23.09442 2.1802,36.31591 13.2286,0.50683 26.4575,1.00753 39.6861,1.512 -0.3876,7.96699 -2.8501,55.03818 -7.1873,60.88044 -2.3258,0.79637 -27.8881,-3.94468 -33.9511,-8.06744 -0.4104,-4.45441 2.4683,-17.37451 3.4943,-22.74537 h 11.9133 v -5.14336 h -16.4631 c -1.7919,11.21232 -3.6053,22.39772 -5.7288,33.53959 13.1269,3.15828 26.2535,6.31806 39.3803,9.47692 -4.217,23.0137 -7.6197,32.54526 -17.1073,59.12947 -10.5418,-4.89176 -21.8141,-9.25797 -31.8304,-13.94624 -0.028,-8.09453 3.5113,-15.78206 6.0266,-23.33899 4.5012,0.96331 7.9881,1.72467 12.4894,2.68717 l 1.1973,-4.17211 c -4.558,-2.91209 -11.3799,-4.44856 -16.5612,-5.7735 -2.9341,10.8427 -8.5614,21.19309 -10.0781,32.41745 11.911,6.84964 24.0791,13.22827 36.1836,19.7184 -8.5991,18.21435 -18.7346,35.53635 -29.4946,52.49983 -10.8741,-6.23439 -20.2674,-14.55225 -29.6769,-22.779 l 11.6296,-19.24889 c 4.4757,1.89412 7.0739,3.73357 11.5378,5.65856 l 1.7883,-3.89995 c -4.2277,-3.62776 -9.3091,-6.76106 -13.9337,-9.33795 -5.4911,9.93538 -12.9731,18.93607 -17.314,29.50763 10.4998,8.45743 20.964,16.96512 31.4393,25.46269 -11.0621,20.66492 -37.65,46.48744 -37.9242,46.72288 -9.1165,-9.14652 -17.783,-17.81798 -23.7471,-29.39954 5.0043,-5.35805 10.0086,-10.7161 15.0127,-16.07411 3.156,3.05791 6.3132,6.11427 9.4683,9.1732 0.9091,-1.57741 1.8219,-3.15227 2.7307,-4.72985 -4.0305,-4.05343 -8.0602,-8.108 -12.0896,-12.16272 -6.879,8.47049 -16.5807,15.13862 -21.9204,24.85102 4.0683,8.12941 24.8483,31.4628 24.4258,31.98958 -13.8369,17.43467 -42.155,34.45883 -43.9397,35.34158 -8.3003,-9.74627 -18.6444,-28.30242 -19.4673,-30.86666 4.6913,-5.86971 11.6903,-9.60139 17.7252,-13.92241 3.0115,3.79429 5.8979,8.17849 8.747,12.22733 1.0367,-1.11193 2.0743,-2.22294 3.1116,-3.33416 -2.9561,-5.60976 -5.9877,-11.18376 -9.4318,-16.47472 -8.4908,7.2451 -20.4049,11.44321 -27.3717,20.48733 4.7233,12.74717 13.0286,25.12475 19.5585,37.25713 -24.6934,12.8843 -27.7521,14.16985 -51.9003,24.3744 -4.4061,-13.31551 -8.7416,-25.91844 -11.8069,-35.85005 5.1267,-2.84232 14.124,-6.65516 19.8339,-9.0569 1.6123,3.5529 3.8995,7.08466 5.8929,10.99489 l 3.7306,-1.95964 c -1.9354,-5.03504 -7.4766,-16.14832 -7.4766,-16.14832 0,0 -23.2021,10.83988 -29.9999,14.53339 3.9914,11.83094 8.5551,26.37706 12.7655,39.63463 -21.324,8.78621 -43.4183,13.36536 -57.2871,14.9813 -0.9424,-14.59199 -2.2135,-27.89059 -3.3045,-39.82154 6.9069,-2.29913 14.5415,-2.70616 21.7522,-3.72184 1.395,3.70599 2.0442,7.78173 3.2944,11.89208 l 3.9622,-1.2533 c -0.57,-5.36072 -2.9942,-16.90401 -3.5753,-16.68925 -10.5307,1.49107 -21.0775,2.9892 -31.2413,6.22064 1.0514,14.62445 2.0997,29.24915 3.1499,43.8737 0,0 -31.6291,2.49999 -58.9091,-0.58669 l 2.6241,-38.71872 h 24.5114 v 15.68857 h 4.7929 v -21.06671 c -10.9599,0.51252 -21.9199,1.02512 -32.8796,1.54214 -1.4345,13.72311 -2.8743,27.44563 -4.3108,41.16851 -25.4411,-3.98794 -34.3676,-4.57623 -56.9281,-12.81126 2.844,-11.44626 6.524,-25.13115 10.8225,-37.14491 7.0394,2.23137 14.0789,4.46274 21.1183,6.69415 -0.5219,4.58624 -1.0448,8.27029 -1.566,12.85664 l 4.4982,1.22717 c 1.1965,-5.06154 3.0372,-12.56608 3.0781,-18.33974 -10.3545,-2.91851 -20.7135,-5.80348 -31.1334,-8.44735 -4.358,14.01623 -8.7191,28.03142 -13.0782,42.04724 -20.225,-8.47329 -35.7786,-16.482 -53.1694,-25.87622 5.8382,-11.24665 11.6764,-22.49326 17.5145,-33.73992 7.0327,3.65866 14.0653,7.31734 21.0981,10.97597 -1.7838,3.75485 -2.5384,7.80829 -4.5272,11.71725 l 3.7437,2.09382 c 1.4686,-1.9559 6.5911,-13.80792 7.1833,-15.99393 -4.3186,-4.20991 -24.6367,-15.31922 -29.3717,-16.45861 -6.5538,11.96829 -15.2893,24.82151 -21.722,36.86355 -9.2882,-5.84286 -32.8244,-21.96605 -45.7307,-36.77742 7.9516,-9.25934 15.9032,-18.51871 23.8549,-27.77807 l 17.5449,14.99288 c -2.5109,4.10617 -5.0243,8.21055 -7.5336,12.31785 1.1256,1.20537 2.252,2.40996 3.3768,3.61628 3.2773,-4.78754 8.5122,-10.98955 10.5129,-16.60782 -3.3449,-3.721 -19.4751,-16.78078 -25.3575,-21.55393 -9.3724,10.84791 -18.1427,20.71552 -27.5173,31.56126 -17.1099,-18.25076 -24.1004,-25.90435 -38.5032,-46.32368 5.002,-3.71916 25.707,-19.08574 28.7228,-21.24761 3.3433,3.08538 11.4777,14.70127 13.9399,18.6624 -2.7754,3.03331 -5.5261,5.59278 -8.0144,8.7222 1.4704,0.97395 2.1822,2.59568 3.6522,3.57037 3.7003,-4.21729 7.4003,-8.43486 11.101,-12.65166 -6.3039,-8.77209 -12.8139,-19.02761 -20.2087,-26.21654 -11.0816,7.69274 -22.1714,15.91609 -32.6001,24.16608 -11.4746,-15.78243 -17.8896,-29.12281 -28.6855,-53.73245 3.8269,-1.76913 20.4424,-11.24646 29.6784,-14.63542 4.7616,5.8753 9.4596,14.60339 12.0347,20.02282 -3.6073,2.59728 -6.7758,4.63521 -10.3839,7.23127 1.0861,1.21209 1.7385,2.98175 2.8258,4.19269 4.8635,-3.07299 9.725,-6.14983 14.5873,-9.2249 -5.7232,-9.77836 -8.795,-21.50768 -15.8716,-30.47037 -12.0576,4.93498 -23.7827,10.66679 -35.5759,16.21198 -8.9965,-21.2476 -10.1475,-25.00657 -19.0196,-58.70465 5.1089,-3.81901 26.3463,-7.05428 34.083,-8.91949 1.9341,8.45343 4.6916,15.95113 6.2121,24.78668 -2.9562,1.13334 -8.7246,2.3517 -11.178,4.59455 l 1.3924,3.46267 c 5.486,-1.25618 10.7578,-3.56182 16.0397,-5.53752 -3.6655,-12.5425 -5.8584,-25.79754 -8.6093,-33.3802 -11.7298,0.72819 -28.171,5.51381 -39.2465,7.25843 -4.4351,-21.8036 -5.3081,-39.69996 -6.1939,-60.72818 11.6141,-0.50829 22.1802,-1.20335 33.7945,-1.71164 1.5803,8.7885 2.3652,17.45138 3.0993,26.44914 l -11.2276,1.95446 c 0,1.71446 0.5878,3.70815 0.5877,5.42257 l 16.8574,-2.14407 c -1.1163,-10.28011 -3.2048,-26.12316 -4.3214,-36.40323 -13.2785,-0.50847 -24.7519,-0.51221 -38.7993,-0.88117 0.5605,-29.298947 0.7393,-38.154119 4.9822,-62.031758 11.781,0.17601 25.0141,4.647408 36.3128,7.903845 -1.4275,7.8289 -2.9624,15.617486 -4.489,23.425166 h -12.1099 c 0,1.714457 10e-5,3.428913 0,5.143369 h 16.4632 c 1.7882,-11.227626 3.6149,-22.424972 5.7328,-33.582674 -13.1275,-3.025471 -28.2173,-6.883131 -41.3454,-9.90617 0.3599,-13.579599 13.3952,-54.1480942 18.9326,-60.1172396 10.741,5.2137314 23.4432,11.6852155 34.1843,16.8989433 l -8.032,21.8916303 c -4.5728,-0.978963 -6.8238,-1.769635 -11.397,-2.746961 l -1.6028,4.913725 c 4.7418,2.191467 10.4991,3.723185 15.6596,5.046447 3.4688,-10.394743 8.7126,-21.916519 11.7531,-32.4639727 -10.8193,-5.8738744 -27.0198,-14.2556753 -38.2972,-19.8246753 12.4156,-29.800365 17.1633,-38.952927 29.9618,-53.609118 7.6008,7.759969 23.0059,14.862018 29.0081,23.849382 -2.8632,6.850853 -7.185,13.084841 -10.9915,19.440562 -4.4718,-1.892696 -7.8756,-3.813416 -12.3354,-5.737829 l -1.5943,4.28657 c 3.4946,3.123766 10.9752,6.257863 15.0314,8.691279 8.7778,-15.2403 14.4333,-23.31465 16.8199,-29.170419 -10.498,-8.466451 -22.1391,-17.800635 -32.6139,-26.299048 14.1694,-19.867846 19.5983,-28.691494 39.0902,-46.638584 7.1404,9.78223 17.8432,17.56426 23.2074,28.650691 -2.9509,5.412559 -9.3837,12.028931 -14.2894,17.189321 -3.1237,-1.383358 -6.5833,-5.097264 -9.3821,-7.810281 -1.4096,1.879239 -2.1684,3.128902 -3.5125,4.659369 4.0146,3.420836 8.1082,7.972581 12.613,10.675886 8.1743,-7.75903 15.2752,-15.637438 22.6044,-23.622616 -8.4141,-11.2438 -16.8595,-22.45596 -25.3601,-33.62576 15.5525,-15.99906 26.3571,-23.03978 45.2531,-35.02982 3.8826,3.69785 17.8104,26.2876 18.4621,31.29507 -4.6902,5.51997 -11.8816,10.45456 -18.1168,14.1597 -2.3524,-2.91136 -4.295,-6.27864 -7.2048,-8.62218 l -3.1892,2.60552 c 2.2336,5.93161 7.3765,13.13815 9.0634,13.21584 4.7113,-1.87534 27.6918,-18.54607 26.6084,-21.22319 -6.888,-11.89095 -12.899,-23.77056 -19.2596,-36.02685 23.6695,-14.24408 32.9232,-18.77589 53.0422,-25.19538 3.8601,11.10535 8.2295,25.1537 11.6295,36.40613 -6.616,2.78205 -14.4792,6.43811 -21.0952,9.22014 -2.2202,-3.86416 -5.2288,-9.9443 -6.4978,-12.19853 l -4.019,2.23938 c 2.2575,3.36016 5.5659,13.40749 8.2111,15.89111 6.503,-2.72172 24.6628,-9.29104 30.0041,-13.02668 -1.0694,-5.02859 -11.574,-35.58767 -11.649,-41.28212 22.011,-7.22481 32.4609,-9.49956 56.5218,-12.47682 -0.2316,12.3647 2.669,18.97241 3.1082,38.63512 -6.8644,2.42725 -14.4446,3.05892 -21.6247,4.2689 -0.9901,-3.76129 -1.4427,-7.76292 -3.2537,-11.21797 -1.822,0.44288 -2.132,0.44171 -3.9326,0.88007 -0.1498,5.39404 2.7709,15.97529 3.3498,15.76381 10.9989,-1.52986 22.1164,-2.59165 32.7842,-5.82005 -1.8678,-5.38735 -3.0541,-20.73025 -4.6855,-43.35889 19.8464,-2.09217 38.0769,-1.70252 59.4046,0.003 -0.9185,12.37083 -1.7699,25.02365 -3.1036,38.47027 z m -88.5303,22.39513 -10.7431,-37.12287 c 7.3475,-2.20248 16.1065,-4.13822 23.5107,-6.12257 1.7355,5.53424 2.2788,10.04564 2.3247,15.63699 l 4.9783,-0.10021 c 0.4495,-7.28613 -1.3899,-14.28181 -3.1114,-21.26917 -14.2825,2.62735 -18.7111,3.67686 -35.4847,8.36552 3.3632,14.69221 7.4341,28.27883 10.9867,42.61741 -15.9301,5.64535 -26.3477,9.77773 -44.9833,18.63837 -0.8118,-0.0722 -14.3725,-30.74884 -15.2955,-33.93647 0.8805,-1.84788 19.9112,-10.73836 21.6831,-11.73413 1.3173,2.21478 3.6226,7.62489 6.2558,12.34366 l 4.3223,-2.14443 c -2.2808,-6.32912 -5.2321,-11.96451 -7.5412,-17.86474 -10.6728,4.44663 -24.012,8.39972 -32.3368,17.17972 0.4129,1.43418 16.7886,34.03681 16.9919,38.65643 -2.4476,1.98547 -23.518,14.94783 -40.5207,27.918077 -6.149,-9.875297 -15.6112,-18.155807 -20.1378,-29.053157 3.2585,-6.86808 12.1523,-10.97136 17.8495,-15.71894 1.6369,-1.77914 2.3745,3.79807 7.9927,8.80508 0.7518,0.67493 2.9214,-2.40422 3.869,-2.1645 -2.9798,-4.47944 -5.4446,-10.2927 -8.3143,-13.83415 -11.5363,3.13343 -21.2188,13.67359 -30.926,20.95678 16.6587,22.23711 18.7138,24.49329 25.2677,33.29182 -6.9349,6.699009 -23.3927,22.708086 -35.3036,36.64544 -9.1658,-6.364874 -16.9995,-14.794759 -25.1678,-22.420759 3.9482,-6.985887 9.4224,-13.523696 15.4706,-18.931919 1.6416,0.285908 1.9331,0.508421 9.7808,8.142706 1.0633,-1.138073 2.1267,-2.276192 3.1884,-3.415991 -3.9355,-4.274134 -13.1691,-13.447707 -13.1691,-13.447707 -8.7164,8.730275 -16.2072,18.742863 -23.9666,28.423358 10.422,9.054426 20.3139,17.892995 30.7363,26.947088 -11.9536,17.589845 -15.8407,22.319022 -26.4853,44.513937 -10.8423,-6.491674 -20.3669,-12.03658 -31.2093,-18.528252 3.0794,-5.417665 8.5767,-16.265309 12.0469,-21.422464 4.5207,2.201094 7.5508,3.295678 12.6122,6.205582 1.0367,-1.115461 1.4397,-2.652529 2.4774,-3.766979 -5.4228,-3.416637 -10.0368,-6.011405 -17.1517,-9.640677 -4.3203,10.280264 -11.3826,20.029047 -16.5577,30.832576 11.7934,8.05562 23.3364,14.5371646 35.0426,21.30152139 -6.8031,15.94442961 -12.0453,32.59023461 -17.3768,49.07719961 -11.4507,-3.577526 -22.1582,-7.047562 -33.609,-10.625088 2.2733,-10.227408 2.9338,-12.177541 7.7364,-25.850391 3.5143,1.373956 7.864,3.708114 11.5724,4.41903 l 3.027,-5.248258 c -5.2123,-2.1068628 -11.7182,-5.0018885 -16.9296,-7.1112399 -4.8082,10.5933159 -9.5484,24.2804019 -13.3102,36.2844839 4.9641,2.275807 32.1159,10.917453 39.7344,13.429714 -5.9,26.897763 -5.467,29.901947 -7.8107,50.406809 -12.4426,0.0199 -23.1375,-0.55806 -34.5251,-1.31432 0.6858,-9.10365 2.3566,-18.750453 4.5915,-27.17976 3.7935,1.01894 6.8173,1.631315 10.6116,2.647519 1.0225,-1.768439 0.5045,-3.675763 1.5272,-5.444037 -5.8914,-1.18332 -10.2457,-2.22678 -16.1368,-3.412554 -3.4717,10.475957 -2.8966,13.475022 -7.323,39.818042 h 40.9144 c -0.5758,22.14109 1.0593,36.29239 3.4949,54.16927 -10.472,2.36283 -22.0872,3.76755 -32.9213,5.48779 -3.0896,-15.52946 -3.2832,-18.48138 -3.8069,-26.96822 4.454,-0.55144 7.8631,-1.10254 12.317,-1.65416 v -5.11105 c -6.0726,0.53597 -12.145,1.07576 -18.2174,1.61322 0.6493,12.90881 0.8584,25.9023 4.1548,38.43959 12.1918,-1.96076 27.3493,-3.78681 39.5436,-5.73006 1.365,7.39363 12.4718,47.2732 13.2732,49.97423 -13.01,4.84122 -31.3828,13.11672 -33.0154,12.63226 -3.2096,-2.89261 -7.2243,-19.58337 -8.4331,-24.87471 2.6878,-1.33056 9.2456,-3.07411 12.4623,-3.93936 l -1.1378,-5.36212 c -6.3306,1.82112 -9.5303,2.23873 -17.9526,5.59473 4.3639,12.40329 6.3991,19.25107 13.1489,36.23836 1.1104,0.51879 14.8185,-6.58089 36.3555,-15.40584 1.7276,-0.56184 0.5512,7.2921 23.1423,46.66236 -10.371,6.9634 -20.217,14.0203 -30.5881,20.98366 -3.8225,-7.94624 -8.1702,-15.98603 -11.9928,-23.93226 4.7302,-2.33957 7.1849,-3.7225 11.4466,-6.28359 -1.1024,-1.18203 -1.5945,-2.92286 -2.6974,-4.10439 -3.903,1.84508 -11.3425,6.07543 -15.0749,8.30392 4.4508,11.10024 11.2587,23.47752 17.5382,34.2689 11.2691,-7.16565 22.7967,-16.31439 33.3181,-23.32645 12.659,16.44074 21.0599,27.06376 30.6483,39.55348 l -24.8456,26.60639 c -6.6626,-5.49395 -10.4071,-10.24119 -16.9643,-20.34877 2.9628,-2.657 8.6438,-7.70625 8.6438,-7.70625 0,0 -1.9308,-2.45481 -2.4326,-3.46817 -1.7172,1.40462 -12.3245,9.97137 -13.2653,10.54709 8.2408,9.02736 13.9378,19.94189 23.4127,27.79516 10.5601,-8.92765 19.6978,-19.48432 29.2131,-29.52053 12.3558,10.50079 24.7063,21.00888 37.0952,31.46543 -1.0221,4.20368 -9.1538,19.8984 -18.9061,33.16699 -6.0299,-4.92438 -13.464,-10.45791 -19.4939,-15.38229 1.9209,-5.02675 4.9259,-6.30061 6.8178,-11.34003 -1.3219,-0.0767 -2.574,-3.37256 -3.5656,-2.22899 -3.9851,3.36275 -10.8657,13.35717 -10.3036,14.24919 12.6534,9.00744 17.2121,16.17901 30.1794,21.61812 6.956,-12.06588 13.9098,-24.13319 20.8651,-36.19959 14.2314,8.04126 28.5116,15.99225 42.678,24.15747 l -13.4792,35.80327 c -5.5254,-3.01891 -16.5627,-7.8626 -20.2694,-12.13626 -0.024,-1.64482 0.5525,-2.70054 4.9833,-11.54307 -1.5374,-1.01753 -3.074,-2.03642 -4.6126,-3.05199 -2.6371,5.46025 -5.2763,10.91924 -7.9126,16.37998 8.7102,8.0368 20.7672,11.98009 31.326,17.02396 l 15.7783,-40.56545 c 15.0609,5.4035 30.556,9.24298 46.0956,12.89721 -1.3126,21.9583 -4.5029,37.09529 -5.5101,37.5608 -8.1767,-0.0647 -16.2434,-2.66917 -24.1972,-4.43043 1.0802,-5.05643 2.0847,-9.23027 3.1378,-14.29661 -0.9819,-0.57048 -2.2778,-0.86153 -4.091,-1.37537 -1.797,6.30465 -3.7788,12.70839 -5.4826,18.65289 14.4015,4.11653 19.6476,5.35241 35.426,8.33966 3.5074,-13.83396 4.6045,-28.13289 6.1865,-42.28419 16.9494,1.75465 32.2735,3.19045 50.2194,2.2823 l 0.4745,37.02959 h -24.5092 v -13.07382 h -4.7929 c 6e-4,6.07095 0,12.14193 0,18.21288 11.7707,0.003 23.5416,0.007 35.3125,0.0105 -0.5159,-14.56653 -1.0376,-28.07185 -1.5558,-42.63831 16.174,-1.63074 32.2695,-4.92223 48.3016,-7.61077 2.7903,12.27164 5.4255,24.59157 8.743,36.7165 -8.2233,1.79654 -16.494,3.44101 -24.5499,5.98768 -1.0774,-4.98674 -1.6592,-8.09415 -3.3408,-13.18695 l -3.6138,0.93437 c 1.0294,6.17731 2.0405,14.57886 3.1196,17.47347 13.2198,-2.4309 17.687,-3.4492 34.7862,-8.22763 -2.4244,-13.79351 -9.5702,-27.39671 -9.3954,-41.62298 22.2855,-8.03573 26.2526,-9.88946 44.1068,-19.84271 5.4895,10.41126 10.6754,23.1876 14.5989,34.32944 -5.8082,5.09916 -13.9919,8.6588 -20.743,12.40602 -1.8986,-4.03956 -4.3032,-8.0037 -6.4449,-12.47961 -1.1141,0.65198 -3.0255,1.65618 -4.3711,2.30743 2.4248,6.22089 4.3928,10.76144 6.8168,16.98274 11.2229,-5.03225 23.5256,-10.72009 31.9417,-17.0046 -4.0842,-13.02307 -11.7356,-26.25155 -17.6502,-38.82725 22.2414,-13.02367 27.4289,-16.51144 41.2934,-28.59847 7.417,9.76714 15.275,20.87875 22.5799,30.7394 -6.656,5.24027 -13.3117,10.48055 -19.9676,15.72086 -2.5498,-3.2336 -4.7982,-6.77253 -7.7221,-9.64705 -0.684,-0.68636 -2.0332,0.78616 -2.7876,1.49131 0.372,4.61432 4.5722,10.50618 6.7224,15.05555 4.6623,1.50163 26.671,-18.49774 31.0192,-21.94439 -8.3049,-11.17613 -16.978,-23.27154 -25.2834,-34.44718 13.1867,-12.15532 23.806,-23.91612 34.5476,-37.12348 5.8443,7.37358 21.8429,20.00142 27.3587,25.24842 -5.1287,6.70394 -10.8621,13.25476 -16.3191,19.79341 -3.416,-3.31047 -6.8321,-6.6209 -10.2481,-9.93136 -1.0627,1.13733 -2.1254,2.27474 -3.1864,3.41382 3.9761,4.31406 8.2346,10.25513 12.9685,13.68934 5.6462,-3.67116 18.7128,-21.85793 24.1529,-28.64558 -10.4642,-8.9819 -20.9314,-17.95988 -31.3968,-26.94027 9.1656,-15.03664 18.02,-27.73232 25.5643,-43.98976 10.8485,6.49741 21.9912,11.50628 32.8395,18.00369 -4.3195,7.65476 -8.639,15.30949 -12.9586,22.96425 -3.8239,-2.68293 -7.6475,-5.36617 -11.4716,-8.04892 -1.088,1.16508 -2.1765,2.32964 -3.2635,3.49571 5.0522,4.41144 10.8798,8.16773 15.9789,11.30549 3.6713,-5.1692 17.7592,-30.33553 18.8855,-32.75821 -8.0142,-4.66911 -20.3479,-11.33055 -35.7598,-20.27579 5.6788,-16.39071 11.3576,-32.78143 17.0364,-49.17218 11.3279,3.5718 22.6558,7.14356 33.9837,10.71537 -2.239,10.04929 -2.9248,12.11763 -7.4588,24.99745 -4.9326,-1.05593 -9.1293,-2.05032 -14.0622,-3.10537 l -0.9164,4.24112 c 5.5939,2.60021 11.8027,4.68444 16.9221,6.75824 5.1723,-12.95041 9.6631,-24.04062 10.6909,-36.69081 -8.286,-2.97136 -27.4496,-9.32412 -37.2423,-12.42196 -1.2726,-5.33579 7.3547,-35.03024 7.2797,-50.29143 12.1189,0.77601 25.9477,-0.18619 34.4963,1.16093 1.3923,1.9141 -0.764,26.96658 -2.1764,26.30001 -4.3881,-0.50118 -7.1046,-0.47308 -11.4926,-0.97553 -0.047,2.24223 -0.299,3.63939 -0.4476,5.88059 5.085,0.54095 11.0063,1.39538 16.0917,1.93391 2.6704,-13.00294 3.805,-26.25854 5.206,-39.4454 h -41.4403 c 0.7574,-18.0968 -1.3751,-36.133053 -2.3093,-54.18416 l 32.6588,-5.410448 c 3.2182,7.607296 4.3288,18.464822 4.8476,26.905778 -4.4538,0.55142 -8.9079,1.10251 -13.3617,1.65415 v 4.79875 h 19.6069 c -1.2903,-13.317314 -2.7534,-26.613927 -5.2789,-39.75343 -13.2065,2.317841 -26.4579,4.438494 -39.7307,6.340906 -8.6879,-30.796817 -8.0797,-32.89604 -13.3496,-50.498609 5.7376,-1.032747 29.9688,-12.836623 32.5226,-13.140815 4.5878,6.992852 6.3081,14.011131 9.0534,25.86107 -4.197,1.128721 -8.3946,2.256568 -12.5918,3.385836 v 5.457832 c 6.3408,-1.804233 13.3673,-2.170463 19.0924,-5.686138 -4.0903,-13.90255 -7.0378,-24.826968 -13.0455,-36.1931289 -1.2745,-0.8403499 -17.5499,7.8514019 -36.9721,15.6247899 -7.2453,-15.0939093 -14.1547,-31.922533 -22.712,-47.079472 9.7072,-6.31362 19.4145,-12.627245 29.1218,-18.940869 7.0582,4.773335 10.3545,13.753678 14.4211,21.01071 -4.0386,2.748797 -8.0202,5.588478 -12.0226,8.393517 0.8869,1.539902 1.775,3.079145 2.6638,4.617833 3.2989,-3.25804 13.956,-8.007315 16.1759,-10.589386 -5.2913,-11.59209 -12.6437,-22.822754 -18.7263,-33.273569 -11.491,6.541784 -22.4914,16.944201 -33.9106,23.820008 -9.5084,-15.216661 -19.6983,-28.776575 -30.1552,-40.31196 8.6249,-8.071091 15.9706,-17.532228 25.1312,-25.563927 6.3394,5.455431 10.6008,11.939928 15.2174,18.423946 -2.3661,2.93517 -6.5269,6.415524 -8.4423,9.727497 -0.4626,0.789567 1.8833,2.258011 2.9815,3.175575 4.3013,-3.023291 9.3533,-7.033513 13.7419,-10.21373 -2.4916,-3.702232 -19.4093,-25.815916 -23.2594,-29.017886 -10.5261,8.898433 -19.6292,19.42208 -29.1198,29.419305 -11.768,-11.148255 -21.289,-19.612103 -36.9076,-32.172885 2.2157,-6.69944 16.4426,-31.7535 19.3719,-30.9197 6.8497,3.97408 12.7763,9.37909 18.9475,14.32103 -2.5236,3.79042 -7.7778,11.05373 -7.7778,11.05373 l 3.6767,3.22633 c 0,0 8.0258,-10.18175 11.5721,-15.20621 -10.0626,-6.83499 -19.0473,-15.5089 -29.6487,-21.53194 -8.1382,11.45563 -14.8973,23.86539 -22.0136,35.98636 -13.4333,-9.40715 -25.0932,-15.35874 -42.919,-23.2516 0.4838,-1.80973 10.7769,-32.399 13.9896,-36.147 5.0012,2.38514 18.2447,8.81076 20.6135,10.77059 -1.0948,3.73065 -3.955,8.88113 -5.5989,12.34872 1.5378,1.01567 3.0744,2.03298 4.6127,3.0477 2.6359,-5.45873 5.2736,-10.91642 7.9085,-16.37565 -8.8684,-8.21848 -32.5911,-18.48483 -32.9202,-16.19904 -4.8014,14.43333 2.9553,-9.73604 -14.3341,40.7162 -14.9099,-6.37418 -30.9014,-9.89286 -46.4763,-14.23042 1.4425,-13.03933 2.9823,-25.49482 5.9227,-38.28091 9.3507,2.09034 16.2459,3.7649 24.1589,5.97676 -1.0267,5.01566 -1.7787,9.07585 -2.8033,14.09202 l 4.4801,1.29995 c 1.4019,-5.6434 3.1969,-11.96476 4.6014,-17.60741 -13.5915,-4.58058 -20.4154,-5.98272 -34.507,-8.8064 -2.7623,13.1252 -5.0994,28.04334 -6.9232,41.96045 -16.4463,-2.05616 -32.686,-2.22391 -49.1322,-2.28059 -0.4779,-12.41904 -1.1626,-25.06025 -1.6408,-37.47929 h 24.7241 v 13.07596 h 4.2643 c 0.6619,-6.07228 1.3216,-12.14484 1.9832,-18.21718 -12.2559,-0.001 -24.5115,-0.003 -36.7671,-0.005 0.5112,14.41739 1.0296,28.83464 1.5476,43.25182 -17.9001,2.04763 -24.815,3.30751 -44.9122,7.91528 z m 255.6328,94.364542 C 2502.8365,243.84661 2131.7978,562.66772 1907.7432,291.15831 1857.5673,223.11002 1844.7287,145.59365 1855.2224,81.943071 1879.1741,-128.93696 2152.5486,-238.9163 2299.5096,-50.976858 Z"
       sodipodi:nodetypes="scccsccssccccccccccccccccccccccccccccccccccccccccccccccccccccccccccccccccccccccccccccccccccccccccccccccccccccccccccccccccccccccccccccccccccccccccccccccccccccccccccccccccccccccccccccccccccccccccccccccccccccccccccccccccccccccccccccccccccccccccccccccccccccccccccccccccccccccccccccccccccccccccccccccccccccccccccccccccccccccccccccccccccccccccccccccccccccccccccccccccccccccccccccccccccccccccccccccccccccccccccccccccccccccccccccccccccccccccccccccccccccccccccccccccccccccccccccccccccccccccccccccccccccccc" /></g><g
     id="g4-0-1"
     style="display:inline;fill:#000000;fill-opacity:1"
     inkscape:label="Col"
     transform="matrix(0.93229915,0,0,0.93499749,-10.103187,-62.057201)"><path
       id="path1-0-5"
       style="fill:#000000;fill-opacity:1;stroke-width:0.195847"
       d="m 144.5705,184.89621 -0.11885,0.15761 c -0.13704,0.18199 -0.13979,0.25237 -0.11989,2.63395 0.009,1.09125 0.0237,1.36421 0.0806,1.50378 0.0383,0.0939 0.0994,0.17429 0.13591,0.17829 0.20608,0.0226 1.18652,0.10032 1.31413,0.1111 0.008,0.17884 0.0294,1.30306 0.28422,2.02107 0.29534,0.83159 0.9519,1.51728 1.45521,1.51928 0.29551,0.001 0.50517,0.0982 0.59377,0.27389 0.17033,0.33793 0.21992,3.50986 -0.38344,3.50986 -0.26747,0 -0.7642,0.18863 -1.04387,0.39584 -1.18329,0.87669 -1.10167,3.32394 0.17728,4.09019 0.36505,0.21871 0.49375,0.2279 0.62374,0.2279 0.28703,0 0.26045,8.16633 0.26045,13.43328 0,2.92523 -0.0217,7.2827 7.5e-4,7.8027 -6.15108,4.48281 -12.95872,7.0171 -20.0967,9.48824 0.0405,-2.62788 0.13679,-13.1336 0.14015,-13.52212 0.40108,-0.0536 1.55575,-0.0496 2.74546,-0.20779 3.01849,-0.29784 4.36482,-3.25551 0.55242,-4.02208 -0.8706,-0.17507 -3.24291,-0.32557 -4.07546,-0.31378 -0.0443,-0.72195 -0.29322,-3.25759 0.0193,-4.0073 0.12044,-0.28895 1.07029,-0.23032 1.99016,-0.23151 2.35601,-0.32372 4.74755,-0.20884 4.91218,-3.34181 0.003,-0.37607 0.12813,-0.69352 0.2157,-0.72761 0.4817,-0.18743 4.05478,-0.0588 4.71454,-0.18427 l -0.05,-4.36897 c -20.57454,0.003 -41.149076,0.0163 -61.723612,0.0287 l -0.115296,4.42399 c 0.133955,-0.0203 4.801114,0.0778 4.93878,0.14601 0.474363,0.23478 -0.411027,3.81199 6.203755,4.0442 1.283735,0.0451 1.526701,0.0635 1.875855,0.55914 0.245327,0.34707 0.02177,3.22755 -0.06305,3.49271 -0.392843,0.15625 -1.4936,0.19895 -2.299602,0.19895 -5.124474,0 -5.88418,2.59453 -5.304069,3.01646 1.771287,1.63934 5.210377,1.41164 5.749787,1.58543 0.04019,0.51572 -0.03103,12.43925 -0.02149,13.29589 -7.992126,-2.29277 -14.442208,-5.44153 -21.345437,-9.85786 0.02247,-0.52 0.05994,-4.32497 0.05994,-7.2502 0,-5.26696 -0.02658,-13.43277 0.26045,-13.43277 0.129998,0 0.249073,-0.0261 0.623734,-0.2279 1.63922,-0.88297 1.258359,-3.28973 0.177254,-4.0907 -0.27967,-0.20721 -0.776395,-0.39533 -1.043864,-0.39533 -0.339162,0 -0.425032,-0.11019 -0.532784,-0.68368 -0.150457,-0.80078 -0.06593,-2.39968 0.149345,-2.8267 0.08859,-0.17572 0.298258,-0.27196 0.593763,-0.27336 1.899267,-0.44475 1.711538,-3.18169 1.739428,-3.54036 0.01215,-0.15635 1.496827,-0.0416 1.551982,-0.17704 l -0.02913,-4.43603 -9.888756,0.0284 c -3.286107,0.0298 -6.533307,-0.0425 -9.819238,0.003 l -0.05687,4.43709 c 0,0 0.370489,0.0317 0.842037,0.0627 0.39345,0.0258 0.691047,0.0662 0.697632,0.11214 0.02985,0.20802 -0.05387,1.3415 0.36174,2.21898 0.385884,0.81469 0.854193,1.2367 1.460892,1.31517 0.412383,0.0533 0.520359,0.18438 0.63252,0.77101 0.151093,0.83381 0.128775,1.67158 -0.04185,2.4939 -0.01272,0.086 -0.08451,0.24641 -0.15968,0.35657 -0.126196,0.18494 -0.158113,0.20051 -0.417029,0.20051 -0.278932,0 -0.622315,0.15608 -0.907955,0.28473 -1.780166,1.19903 -1.085966,4.1791 1.00459,4.39612 0.01457,0.0696 0.06408,0.82509 0.06408,5.11493 0,3.10986 0.0026,3.71433 0.02532,4.17695 -3.248386,-4.24958 -6.339665,-9.80715 -6.339665,-9.80715 l 0.06098,2.03249 c 22.166806,41.09177 93.206543,47.11496 118.957573,-0.0476 l 0.0615,-1.84603 c 0,0 -3.09179,5.55756 -6.34018,9.80715 0.0225,-0.46262 0.0258,-1.25356 0.0258,-4.3634 0,-4.28984 0.008,-4.95262 0.0641,-5.01882 0.0353,-0.0419 0.17668,-0.0971 0.31367,-0.1266 2.26939,-0.48887 1.76698,-3.66941 0.69092,-4.36511 -0.26306,-0.17012 -0.62903,-0.28526 -0.90796,-0.28526 -0.25892,0 -0.29084,-0.015 -0.41702,-0.19998 -0.0752,-0.11016 -0.14699,-0.27057 -0.15969,-0.35657 -0.0127,-0.086 -0.0523,-0.25561 -0.0878,-0.37672 -0.0891,-0.30434 -0.0619,-1.5528 0.046,-2.11719 0.11216,-0.58663 0.21962,-0.71771 0.632,-0.77101 0.6067,-0.0785 1.07552,-0.50047 1.46141,-1.31516 0.18729,-0.39543 0.27097,-0.81692 0.29817,-1.49965 0.0143,-0.35819 0.0425,-0.68226 0.0631,-0.71986 0.0223,-0.0407 0.30418,-0.0858 0.69763,-0.11162 0.81029,-0.0532 0.81706,-0.0587 0.86196,-0.76584 0.0485,-0.77118 0.0415,-3.08715 -0.0103,-3.28301 -0.0254,-0.096 -0.0867,-0.23749 -0.13695,-0.31419 l -0.0915,-0.13953 -9.65678,-5.1e-4 z m 9.63352,0.94568 c 8.86097,0.0155 9.08315,0.0191 9.17205,0.13436 0.0861,0.11125 0.0915,0.17931 0.0915,1.16685 0,0.60441 -0.0192,1.09982 -0.045,1.16892 -0.0441,0.11793 -0.19275,0.11989 -9.17256,0.11989 -8.44094,0 -9.13214,-0.008 -9.18704,-0.10284 -0.0859,-0.14852 -0.0856,-2.25202 5.2e-4,-2.40037 0.0553,-0.0959 0.72503,-0.10161 9.14052,-0.0868 z m -84.584497,0.1343 c 0.171873,-1.3e-4 0.08596,2.25185 0,2.40037 -0.05495,0.095 -0.746155,0.13207 -9.187036,0.10231 -6.334361,-0.0223 -8.967099,-0.017 -9.096629,-0.0196 -0.01835,-0.0491 -0.03344,-2.26438 -0.02944,-2.43609 6.233746,-0.0458 12.281873,-0.0422 18.313105,-0.047 z m 92.149417,3.53157 c 0.12226,0.99987 -0.0633,2.00149 -0.92084,2.58382 l -6.64507,-0.001 c -5.67171,-7e-4 -6.66068,-0.014 -6.75308,-0.0894 -0.79855,-0.53717 -0.81473,-1.6243 -0.76688,-2.50424 5.02348,-0.0726 10.06583,-0.13815 15.08587,0.0108 z m -101.305964,-0.0403 c 5.24654,0.008 7.497296,0.0304 7.536491,0.077 0.02613,0.9531 8.77e-4,1.92089 -0.766359,2.50373 -0.09237,0.0754 -1.081867,0.0887 -6.753592,0.0894 l -6.645073,0.001 c -0.458891,-0.24946 -0.69654,-0.63837 -0.876432,-1.11931 -0.123152,-0.3665 -0.151822,-1.31066 -0.04444,-1.46451 0.06124,-0.0878 0.805084,-0.0964 7.54941,-0.0873 z m 93.678524,3.56878 c 2.77413,-0.009 5.10633,0.007 5.18263,0.0346 0.32924,0.52844 -0.10952,1.93986 0.1188,3.22048 0.10733,0.60141 0.64616,0.54463 -5.21467,0.54363 -4.78168,-0.001 -5.1375,-0.009 -5.2064,-0.10748 0.25149,-1.10885 0.001,-2.51679 0.002,-3.56878 7e-5,-0.12059 0.42281,-0.10707 5.11804,-0.12247 z m -93.600493,0.047 c 4.695226,0.0154 5.049016,0.0241 5.118034,0.12299 0.06999,0.10029 0.07003,0.13796 -0.0021,0.6749 -0.132197,0.9844 -0.136647,1.40281 -0.02325,2.13475 0.09542,0.61589 0.09662,0.65922 0.02687,0.75913 -0.06889,0.0987 -0.424704,0.10577 -5.206401,0.10697 -5.860816,0.001 -5.322006,0.0578 -5.214669,-0.54364 0.03173,-0.1778 0.06575,-0.75256 0.07545,-1.27744 0.01412,-0.76459 0.0036,-1.01892 -0.05323,-1.27796 -0.09787,-0.44581 -0.07558,-0.60147 0.09663,-0.66507 0.07626,-0.0281 2.408489,-0.0437 5.182629,-0.0346 z m 93.650613,4.77284 c 3.43376,-4e-4 6.87399,0.0222 6.98149,0.0672 0.24498,0.10273 0.45726,0.41928 0.55914,0.83457 0.11818,0.48168 0.11453,0.54765 -0.0512,1.02371 -0.12125,0.34835 -0.16955,0.42421 -0.35657,0.55708 -0.11905,0.0846 -0.30419,0.17157 -0.41134,0.19327 -0.10714,0.0217 -3.16818,0.044 -6.80217,0.0481 l -6.60735,0.009 -0.23668,-0.14986 c -0.38641,-0.24484 -0.67538,-0.87131 -0.62218,-1.34824 0.0545,-0.48831 0.32768,-1.0171 0.60203,-1.1653 0.0835,-0.0452 3.51156,-0.0677 6.94531,-0.0682 z m -93.700739,0.0475 v 5.2e-4 c 3.43375,4.8e-4 6.861298,0.0235 6.944796,0.0687 0.320661,0.17321 1.32537,1.661 -0.256832,2.66289 l -6.606832,-0.009 c -3.634004,-0.004 -6.695026,-0.0264 -6.802168,-0.0481 -0.107145,-0.0217 -0.292295,-0.10869 -0.411345,-0.19327 -0.806422,-0.67976 -0.432546,-2.17049 0.151415,-2.41535 0.107504,-0.045 3.547219,-0.0671 6.980969,-0.0667 z m 88.176009,3.61529 h 5.52887 v 5.1e-4 c 4.94812,0 5.53941,0.01 5.62601,0.0966 l 0.0966,0.0971 -0.002,4.84208 c -0.001,3.44618 9e-4,4.61738 0.0341,5.22278 -0.6982,0.87153 -1.39547,1.67127 -2.06292,2.31614 0.01,-1.25219 -0.0236,-3.44654 -0.0186,-5.28479 0.008,-2.76777 -0.0183,-3.48606 -0.13953,-3.82199 -0.0992,-0.27486 -0.41227,-0.70696 -0.62994,-0.8692 -0.27564,-0.20546 -0.88367,-0.20503 -1.16478,5.2e-4 -0.50024,0.29509 -0.71737,0.69605 -0.73742,1.24747 l -0.003,3.10627 0.0336,7.80918 c -0.72955,0.91925 -1.02477,1.21138 -2.02881,1.93528 l 0.0202,-8.48149 c 0.007,-2.77828 0.0744,-4.03172 -0.0129,-4.40748 -0.12066,-0.51949 -0.3294,-0.89599 -0.6351,-1.14515 -0.2357,-0.19212 -0.27684,-0.20468 -0.66973,-0.20568 -0.39248,-0.001 -0.42955,0.01 -0.60565,0.18139 -0.30689,0.29871 -0.59145,0.75161 -0.65215,1.03818 -0.0416,0.1967 -0.0269,8.13417 -0.0269,10.39885 0,1.60818 0.0852,4.22307 0.11536,4.67251 -0.61044,0.73938 -1.22724,1.22145 -2.1933,1.86287 0.0168,-0.74313 -0.0171,-4.84082 -0.0171,-7.01029 0,-4.29668 0.0179,-13.34186 0.0775,-13.46378 z m -88.180143,0.0475 h 5.529378 c 0.141255,0.28903 0.14521,5.54881 0.14521,13.60175 0,2.16947 -0.03383,6.12002 -0.01705,6.86315 -0.917088,-0.76578 -1.514925,-1.3405 -2.279365,-2.05726 0.03022,-0.44944 0.200939,-2.72278 0.200939,-4.33098 0,-2.26468 0.01531,-10.20267 -0.02635,-10.39937 -0.273917,-1.29318 -2.068235,-1.99735 -2.562634,0.13126 -0.08728,0.37576 -0.0083,1.62921 -0.01344,4.40748 l -0.01615,8.2139 c -0.718117,-0.58816 -1.251231,-0.951 -1.992,-1.79009 l 0.03359,-7.68678 -0.0031,-3.10627 c -0.749289,-2.27999 -2.173225,-1.37319 -2.532145,-0.37879 -0.121244,0.33593 -0.147446,1.05474 -0.139527,3.82251 0.0053,1.83827 -0.02815,3.84616 -0.0186,5.09834 -0.667452,-0.64487 -1.263706,-1.33222 -1.978664,-2.25059 0.0076,-3.50251 0.03664,-6.59536 -0.0042,-10.10075 0.357052,-0.0208 0.725905,-0.0374 5.67404,-0.0374 z m 47.536113,0.71882 c 26.19728,-0.0125 29.00129,-0.008 29.17342,0.0734 0.26799,0.12534 0.32244,2.4382 0.0548,2.56367 -1.67813,-0.0605 -6.0287,0.21578 -29.37185,0.0801 -18.582797,-0.10802 -29.134867,-0.002 -29.272112,-0.10128 -0.150991,-0.10972 -0.266649,-2.39503 0.176217,-2.55075 0.276751,-0.0974 1.65557,-0.052 29.239555,-0.0651 z m 43.85056,2.64738 c 0.4584,-0.0231 0.70536,0.34025 0.74982,0.71107 l 0.004,2.91507 c 0.002,1.49186 -0.0575,9.11704 -0.0439,10.14456 -0.419,0.43504 -0.64755,0.66581 -1.20457,1.0148 0.0146,-0.39527 -0.11135,-2.56132 -0.11059,-3.99856 0.001,-1.55217 -0.0102,-10.02168 0.0103,-10.10688 0.0101,-0.33116 0.1771,-0.6765 0.59532,-0.68006 z m 4.68033,0.009 c 0.4321,0 0.59199,0.29352 0.59754,0.73426 0.004,0.31969 0.0386,-0.25978 0.0386,2.93218 l 0.0724,6.05167 c -0.33391,0.50389 -0.87438,0.97307 -1.37666,1.29191 l -0.002,-2.66221 -0.0388,-7.66414 c -0.005,-0.44612 0.28125,-0.66498 0.709,-0.68367 z m -93.744147,0.0382 c 0.399012,0.0199 0.57783,0.32003 0.595312,0.68006 0.02048,0.0852 0.0095,8.55522 0.01034,10.10739 7.6e-4,1.43724 -0.0717,3.13341 -0.110588,3.73097 -0.453542,-0.3019 -0.777753,-0.66481 -1.259543,-1.09356 0.01547,-0.72436 0.0084,-8.30685 0.01052,-9.79873 l 0.0041,-2.91507 c 0.02302,-0.50174 0.238282,-0.6999 0.749825,-0.71106 z m -4.680335,0.009 c 0.404627,0.004 0.625196,0.20016 0.708484,0.68368 l -0.03876,7.66413 -0.0015,2.47629 c -0.502609,-0.31904 -0.706077,-0.72602 -1.37666,-1.29141 l 0.07183,-5.86626 c 0,-3.19195 0.01364,-2.79646 -0.0025,-3.12919 0.01406,-0.28857 0.432509,-0.51827 0.639188,-0.53725 z m 49.843982,0.84905 h 5.2e-4 c 16.33187,0.007 24.1502,-0.0195 24.27223,0.0198 0.16528,2.64687 -0.43573,2.78459 -2.66697,3.21924 -0.36884,0.0501 -3.36704,0.0748 -21.023,0.0754 l -20.686595,5.2e-4 c -1.5381,-0.11336 -4.636531,-1.1821 -3.891752,-3.19619 0.190632,-0.0742 3.001752,-0.12655 23.995947,-0.11885 z m 0.77308,4.11344 c 14.61616,0.013 16.66979,0.10387 16.66979,0.10387 0,0 -0.11987,3.86123 -0.15503,4.12057 -0.0822,0.0292 -2.42782,0.006 -17.31316,0.007 -18.244592,8.5e-4 -14.968279,0.11892 -16.503382,-0.0661 0.0019,-1.40696 -0.225722,-4.04151 0.712618,-4.13557 0.237392,-0.0238 7.953844,-0.0366 16.589684,-0.0289 z m -0.68523,5.09364 21.61936,0.0589 c 2.07055,-0.29125 3.92913,2.81831 -0.79944,2.81647 l -20.56877,-0.008 c -11.312577,-0.003 -20.841399,-0.022 -21.174933,-0.0403 -4.033074,-0.33803 -2.977427,-2.52306 -0.80822,-2.76996 z m -0.0139,3.66138 h 0.002 c 5.79325,0.18268 11.67729,-0.14291 17.49578,0.009 0.093,0.2877 0.0975,13.90184 0.11454,14.10707 -2.14023,0.68169 -5.53928,1.34069 -6.42532,1.49027 0.008,-0.39047 -0.0435,-5.52909 -0.0435,-6.88787 0,-1.91342 0.0463,-3.32081 -0.0837,-3.487 -1.03029,-3.88556 -6.82583,-3.56639 -8.02017,0.0166 0.0156,0.41087 -0.0264,-0.69254 0.002,1.23818 l 0.0174,9.79393 c -2.09668,0.10055 -3.69348,0.0909 -6.18433,-0.10153 -0.0129,-3.30322 -0.0592,-6.50222 -0.10567,-10.91692 -1.15099,-4.04348 -6.802468,-3.83785 -8.289416,0.0593 -0.178393,1.44912 -0.09718,7.81121 -0.08627,10.04953 -2.077765,-0.54485 -4.266989,-0.89042 -6.440461,-1.62678 0.05772,-4.58911 0.243613,-9.09461 0.23263,-13.64462 5.882064,-0.21504 11.896927,-0.0985 17.814927,-0.0989 z m 9.21359,15.79457 c -1.15155,0.24527 -2.84264,0.38743 -4.27984,0.437 0.0422,-0.86817 -0.0253,-7.4846 0.002,-10.44965 0.013,-1.40012 2.01621,-1.68304 2.01621,-1.68304 1.40203,-0.0197 2.25965,0.79855 2.25466,1.64381 -0.001,0.55916 0.0997,8.81298 0.0777,10.00934 z m -14.49831,-10.29112 c 8e-5,3.96949 0.0289,6.6036 0.0669,10.57202 -1.59396,-0.13053 -2.66663,-0.19235 -4.36033,-0.49068 l 0.05869,-10.01093 c 0.05148,-2.2158 4.23468,-2.44976 4.23473,-0.0704 z"
       sodipodi:nodetypes="cccscccccssssscccsscsccccccccsccsccccssssssscscccccssssssssscsccccccssssssscscsssccsccccccscsccscsssccssscsccssssssccssscssssssccscsccssssccssccccccscccsccccccccscssscccccccsccsccsccscssccscsssccccscccccccccccssscccssssscccccssscsccccssccccccssccccccccccccccccscccscccsccsccccccccccssccccccccccsscccsscccscccss" /><path
       style="font-size:7.77424px;font-family:'Dalek Pinpoint';-inkscape-font-specification:'Dalek Pinpoint';fill-rule:evenodd;stroke:#000000;stroke-width:0.648873;stroke-opacity:0;fill:#000000"
       d="m 56.048289,178.26452 -2.213637,3.85628 h 2.180097 v 1.11723 h -3.917467 l 2.730152,-4.77529 -2.153265,-2.02724 0.563471,-0.92803 z m 5.346273,1.20734 -2.354505,3.94637 h -0.181116 l -2.341088,-3.94637 2.341088,-3.91032 h 0.181116 z m -1.13365,0.009 -1.308059,-2.35159 -1.308058,2.35159 1.308058,2.36062 z m 3.588773,3.75716 h -0.872039 v -5.57716 l -0.865331,1.0902 -0.583595,-0.85594 2.119725,-2.36963 h 0.20124 z m 5.299307,-4.29775 -2.287425,4.49598 h -0.194531 l -2.113018,-4.1446 2.50208,-3.78418 0.597012,0.86496 -1.744078,2.56784 z m -1.542838,1.06318 h -1.683706 l 0.838499,1.72991 z"
       id="text1-9-8-8"
       aria-label="2016" /><path
       style="font-size:8.12763px;font-family:'Dalek Pinpoint';-inkscape-font-specification:'Dalek Pinpoint';fill-rule:evenodd;stroke:#000000;stroke-width:0.678368;stroke-opacity:0;fill:#000000"
       d="m 148.55951,178.30105 -2.379,3.92185 h 2.34296 v 1.13624 h -4.21012 l 2.93411,-4.8565 -2.31413,-2.06172 0.60557,-0.9438 z m 5.74566,1.22788 -2.53039,4.01347 h -0.19465 l -2.51597,-4.01347 2.51597,-3.97684 h 0.19465 z m -1.21834,0.009 -1.40577,-2.3916 -1.40578,2.3916 1.40578,2.40075 z m 5.32032,-1.23703 -2.37901,3.92185 h 2.34296 v 1.13624 h -4.21011 l 2.9341,-4.8565 -2.31412,-2.06172 0.60556,-0.94381 z m 5.47892,0.68724 -2.45831,4.57243 h -0.20906 l -2.27086,-4.21507 2.68899,-3.84854 0.64161,0.87967 -1.87437,2.61151 z m -1.65809,1.08126 h -1.80949 l 0.90114,1.75933 z"
       id="text2-9-5-0"
       aria-label="2026" /><g
       id="g148-5-0-0"
       inkscape:label="Greek letters"
       transform="matrix(0.30917991,0,0,0.29380123,-101.21035,110.45643)"
       style="display:inline;fill:#000000;fill-opacity:1"><path
         d="m 673.083,251.21344 -8.50483,11.0305 h 8.37597 v 3.19576 h -15.05097 l 10.48929,-13.65927 -8.27288,-5.79874 2.16486,-2.65454 z m 13.96854,10.77278 -2.24218,2.44836 -10.05115,-9.84498 9.94806,-9.66457 2.19064,2.47413 -6.52037,5.69565 h 5.85029 v 2.91226 h -5.87606 z m 24.12275,1.62365 -2.47413,2.39682 -7.98938,-8.32442 v 7.7832 h -3.35039 v -21.46824 h 3.35039 v 7.21621 l 7.49971,-7.75743 2.47413,2.3195 -8.91718,8.58214 z m 12.80876,-17.57664 -8.27288,6.95849 h 7.39662 v 3.09267 h -7.42239 l 8.22133,7.06158 -2.19064,2.86072 -12.08716,-11.41709 11.82944,-11.18513 z m 6.23687,19.40647 h -3.40193 v -21.44247 h 3.40193 z m 16.44267,-21.44247 -8.37597,18.40135 7.83475,-0.0258 v 3.06689 h -12.93764 l 8.35019,-18.37558 h -7.80898 v -3.06689 z m 13.96854,2.036 -8.27287,6.95849 h 7.39662 v 3.09267 h -7.42239 l 8.22133,7.06158 -2.19064,2.86072 -12.08716,-11.41709 11.82944,-11.18513 z m 17.21585,17.83436 -2.49991,2.1391 -6.13378,-6.93273 -2.65454,1.98446 v 4.40705 h -3.35038 l 0.0258,-21.98369 h 0.77316 l 13.40155,9.76767 -5.48948,3.91737 z m -5.90184,-10.64392 -5.38639,-3.94314 v 8.11824 z m 20.10234,12.21603 H 780.1665 v -21.44247 h 3.35038 v 18.24671 h 8.5306 z m 15.84992,0 H 794.367 v -21.44247 h 3.35038 v 18.24671 h 6.82964 v -18.24671 h 3.35038 z m 16.59732,-6.46882 -10.1027,7.06158 -1.98446,-2.68031 6.90695,-4.69054 -8.96873,-8.37597 9.94807,-6.82963 2.08755,2.62877 -6.85541,4.51013 z m 14.53552,-11.7779 h -5.12867 v 18.24672 h -3.37616 v -18.24672 h -5.12866 v -3.19575 h 13.63349 z m 16.82925,16.67461 -2.49991,2.1391 -6.13378,-6.93273 -2.65454,1.98446 v 4.40705 h -3.35038 l 0.0258,-21.98369 h 0.77317 l 13.40154,9.76767 -5.48948,3.91737 z m -5.90184,-10.64392 -5.38639,-3.94314 v 8.11824 z m 21.75176,12.21603 h -13.5304 v -21.44247 h 3.35038 v 18.24671 h 6.82964 v -18.24671 h 3.35038 z m 23.58159,-0.20618 -3.53079,0.72162 -2.7834,-12.26757 -3.84006,12.00985 h -0.9278 l -3.84006,-12.00985 -2.80917,12.26757 -3.53079,-0.72162 5.54103,-21.49401 h 0.90202 l 4.20087,12.78301 4.20087,-12.78301 h 0.87625 z"
         id="text3-32-8"
         style="font-size:25.7722px;font-family:'Dalek Pinpoint';-inkscape-font-specification:'Dalek Pinpoint, Normal';baseline-shift:baseline;fill-rule:evenodd;stroke:#000000;stroke-width:1.98197;stroke-opacity:0;fill:#000000"
         inkscape:label="2e keizerlustrum"
         transform="scale(0.86870337,1.1511409)"
         aria-label="2e KEIZERLUSTRUM" /><path
         style="font-weight:bold;font-size:39.5345px;font-family:'Dalek Pinpoint';-inkscape-font-specification:'Dalek Pinpoint, Bold';text-align:center;text-anchor:middle;fill-rule:evenodd;stroke:#000000;stroke-width:0.922845;stroke-opacity:0;fill:#000000"
         d="m 619.03441,272.63245 -5.41622,1.10697 -4.26973,-18.81842 -5.89064,18.42308 h -1.42324 l -5.89064,-18.42308 -4.30926,18.81842 -5.41623,-1.10697 8.49992,-32.97177 h 1.38371 l 6.44412,19.60911 6.44412,-19.60911 h 1.34418 z m 26.76485,-0.15813 -5.25809,1.34417 -2.01626,-6.32552 h -10.47664 l -2.1744,6.40459 -5.25808,-1.46278 12.33476,-32.73456 h 1.18603 z m -8.81619,-9.88363 -3.51857,-11.18826 -3.75578,11.18826 z m 30.32295,7.11621 -3.75578,4.11159 -18.34401,-17.51378 18.14634,-17.07891 3.79531,4.07206 -14.70683,12.96731 z m 25.69746,3.24183 h -5.17902 v -14.43009 h -11.78128 v 14.43009 h -5.17902 v -32.8927 h 5.17902 v 13.5208 h 11.78128 v -13.5208 h 5.17902 z m 11.14876,0 h -5.21855 v -32.8927 h 5.21855 z m 26.44857,0.43488 h -1.3837 L 715.22189,253.7745 v 19.17423 h -5.13948 v -33.32758 h 1.38371 l 13.99521,19.49051 v -19.09517 h 5.13948 z m 28.7416,-0.90929 -5.25809,1.34417 -2.01626,-6.32552 h -10.47664 l -2.1744,6.40459 -5.25809,-1.46278 12.33476,-32.73456 h 1.18604 z m -8.8162,-9.88363 -3.51857,-11.18826 -3.75578,11.18826 z"
         id="text13-3-5"
         inkscape:label="Machina"
         transform="scale(0.99846835,1.001534)"
         aria-label="MACHINA" /><path
         style="font-weight:bold;font-size:36.0615px;font-family:'Dalek Pinpoint';-inkscape-font-specification:'Dalek Pinpoint, Bold';text-align:center;text-anchor:middle;fill-rule:evenodd;stroke:#000000;stroke-width:0.841777;stroke-opacity:0;fill:#000000"
         d="m 671.73773,232.52555 -3.13735,3.42584 -14.06399,-13.77549 13.91974,-13.52307 3.06523,3.46191 -9.12356,7.96959 h 8.18596 v 4.07495 h -8.22202 z m 20.15835,1.44246 -4.18313,1.8752 -5.08467,-9.95298 -5.08468,9.95298 -4.18313,-1.8752 6.7435,-11.9003 -6.45501,-11.35937 4.18314,-1.8752 4.76011,9.33993 4.83225,-9.33993 4.14707,1.8752 -6.45501,11.46756 z"
         id="text12-1-5"
         inkscape:label="EX"
         transform="scale(0.99846835,1.001534)"
         aria-label="ex" /><path
         style="font-weight:bold;font-size:38.8445px;font-family:'Dalek Pinpoint';-inkscape-font-specification:'Dalek Pinpoint, Bold';text-align:center;text-anchor:middle;fill-rule:evenodd;stroke:#000000;stroke-width:0.906739;stroke-opacity:0;fill:#000000"
         d="m 643.66968,202.30693 h -1.35955 l -13.75096,-19.26687 v 18.83958 h -5.04978 v -32.74592 h 1.35955 l 13.75096,19.15034 v -18.76189 h 5.04978 z m 25.13241,-29.6772 -12.46908,10.48801 h 11.14837 v 4.66134 h -11.18722 l 12.3914,10.6434 -3.30179,4.31174 -18.21807,-17.20812 17.82963,-16.85851 z m 25.94814,26.88039 -3.76791,3.2241 -9.24499,-10.44917 -4.00099,2.99102 v 6.64241 h -5.04978 l 0.0388,-33.13436 h 1.16534 l 20.19914,14.72207 -8.27388,5.90436 z m -8.89539,-16.04278 -8.1185,-5.9432 v 12.23601 z m 40.28177,2.1753 -14.79976,17.01389 h -0.97111 l -14.8386,-17.01389 14.8386,-16.89736 h 0.97111 z m -6.56473,0.0388 -8.70116,-10.25495 -8.74002,10.25495 8.74002,10.29379 z"
         id="text11-1-7"
         inkscape:label="NERO"
         transform="scale(0.99846835,1.001534)"
         aria-label="NERO" /></g></g><g
     id="g17-9-7"
     inkscape:label="Rope"
     transform="translate(-10.964807,-62.421628)"
     style="fill:#000000;fill-opacity:1"><path
       id="path4-8-6-6"
       style="fill:#000000;fill-opacity:1;stroke-width:0.557518"
       inkscape:label="Basic kraan"
       d="m 109.32149,89.382658 c -0.53526,-0.0049 -1.05268,0.142632 -1.54822,0.327112 -0.0233,0.651897 0.38808,1.326847 1.07693,1.454174 0.1165,0.0741 0.54186,0.06107 0.44649,0.276469 -1.2729,0.43227 -2.47528,1.562577 -2.42259,2.96106 -0.15709,1.748718 2.64277,4.15541 4.84576,2.760034 2.37257,-1.502786 1.88899,-4.359418 -0.75742,-5.663171 -0.12756,-0.1702 -0.0268,-0.2513 0.18448,-0.279613 0.80978,-0.227628 1.46192,-0.936075 1.33772,-1.600952 -0.41244,-0.192909 -0.95438,-0.193478 -1.46639,-0.205096 -0.87319,0.0025 -1.1155,-0.06599 -1.69676,-0.03002 z m 3.46007,2.321833 c 0.52726,0.433826 0.72951,0.625447 1.00426,1.294086 l 9.78938,-6.119932 c 2.0439,0.638163 3.49935,1.423984 4.81145,2.086211 1.37573,0.694341 2.64727,1.446028 4.49565,2.600339 0.26965,0.168392 0.66757,-0.781347 0.87464,-0.888443 -7.78108,-4.799207 -14.43864,-8.019978 -27.47308,-8.800768 -0.22483,0.486575 -0.0818,0.760896 -0.0789,1.187612 6.13767,0.649496 9.24046,0.938711 14.6911,2.997706 -2.69363,1.951828 -5.31722,3.841541 -8.1145,5.643189 z m -2.46891,1.50429 c 1.04417,0.0865 1.51415,1.534194 0.73329,2.206584 -0.57067,0.561877 -1.64608,0.535059 -2.08101,-0.177251 -0.41574,-0.538597 -0.3293,-1.392679 0.293,-1.743562 0.30586,-0.2035 0.68369,-0.312091 1.05472,-0.285771 z m -3.25504,9.332019 c 0.0568,0.0713 0.7938,0.66567 0.89961,0.81234 0.38101,-0.0344 0.38396,-0.0221 0.66441,-0.0586 0.12857,-0.20877 0.0476,-1.59072 0.12895,-2.16018 0.23674,-10.860282 -0.19759,8.04477 0.0216,-2.800777 -1.00678,-0.418393 -1.16025,-0.389514 -1.66254,-1.398576 -0.004,3.475043 8.5e-4,3.702403 -0.052,5.605813 z"
       sodipodi:nodetypes="cccccsccccccccccccccccccccccccccccc" /></g><g
     id="g18-6-4"
     inkscape:label="Lion"
     transform="translate(-10.283097,-77.328824)"
     style="fill:#000000;fill-opacity:1"><g
       id="g185"
       inkscape:label="Head"
       style="fill:#000000;fill-opacity:1"><path
         style="stroke-width:0.283173;fill:#000000;fill-opacity:1"
         d="m 86.818523,113.42988 c -0.234685,0.0883 1.568849,-0.83931 1.568849,-0.89471 0,-0.21128 -2.854585,0.38957 -3.966184,1.48006 -2.9e-4,2e-5 -3.02e-4,5.2e-4 -0.0016,5.2e-4 -0.0852,-0.3303 0.554396,-0.88072 1.246947,-1.44693 -1.796318,0.82976 -2.038449,1.74814 -2.320789,2.04121 -0.02637,0.0212 -0.01533,-0.0346 0.0031,-0.13234 0.05195,-0.26899 0.158294,-0.5365 0.319877,-0.78703 -0.05055,-0.12671 -0.146042,-0.22711 -0.201539,-0.19636 -0.153057,0.0878 -0.02092,-0.22938 0.02944,-0.34186 0.04904,-0.0588 0.06633,-0.16868 0.06816,-0.21858 -0.02515,0.0118 -0.09256,0.10217 -0.201021,0.27492 -0.465936,0.74223 -0.51083,1.4826 -0.526067,1.36064 -0.01994,-0.0688 0.04759,-0.8861 0.0046,-0.90334 -0.2076,0.0321 -1.253047,1.96164 -0.757013,2.70192 0.281987,0.47072 0.462214,0.99756 0.639754,1.50537 0.133524,-0.0256 0.244223,-1.12792 0.20459,-1.32185 -0.0074,-0.0347 -0.03658,-0.18689 0.03047,-0.14998 0.140984,0.10826 0.02815,0.66975 0.13385,0.60293 0.102261,-0.0523 0.127084,-0.7692 0.36794,-1.22163 0.0893,-0.16752 0.146595,-0.0883 0.0863,0.0609 -0.131689,0.32688 -0.08793,0.87379 -0.432527,1.97042 0.142342,-0.14818 0.263427,-0.31646 0.370002,-0.48742 0.145613,-0.10646 -0.0051,0.32388 -0.03509,0.4067 -0.103797,0.28694 -0.259899,0.5301 -0.487825,0.76016 -0.846612,0.98328 -1.664876,1.9236 -2.716113,2.69647 -0.255776,0.1843 -0.676143,0.87174 -0.590662,0.96377 0.05654,0.0389 0.200909,-0.30638 0.28836,-0.41497 0.04873,-0.0626 0.136823,-0.0894 -0.06872,0.4211 -0.284828,0.70782 -0.557964,1.14069 -1.208195,1.91668 -0.330097,0.39393 -0.718756,0.92598 -0.863513,1.18236 -0.372799,0.66026 -0.863184,1.06987 -1.068669,1.4459 -0.156435,0.28623 -0.366303,1.0698 -0.289905,1.07952 0.444188,-0.18132 0.922267,-0.28434 1.386996,-0.25165 0.232886,0.0476 0.357274,-0.57797 0.569478,-0.55862 0.107345,0.01 0.139783,0.29868 0.02892,0.41286 -0.06015,0.0621 -0.143908,0.23035 -0.185519,0.37414 -0.04159,0.14379 -0.15741,0.34237 -0.257348,0.44132 -0.03019,0.0299 -0.186816,-0.36844 -0.362769,-0.36174 -1.578411,0.0601 -0.601464,0.11367 -0.10852,0.37052 0.434292,0.22629 0.250399,0.60307 0.60358,0.97979 0.114569,0.12219 0.252757,0.32123 0.306958,0.44235 0.152484,0.3406 0.596372,0.52846 1.080038,0.60925 1.514251,0.25294 1.349342,-0.12683 2.002978,-0.092 0.372157,0.0198 0.600819,-0.21184 0.876433,-0.41987 0.480343,-0.32549 1.085657,-0.46435 1.373559,-0.32091 l 5.17e-4,5.1e-4 c 5.81e-4,2.7e-4 0.0013,2.4e-4 0.0021,5.2e-4 0.190036,0.0949 0.176296,0.15064 -0.06873,0.28577 -0.114658,0.0632 -0.366465,0.24379 -0.54777,0.41445 -0.978844,0.92138 -3.513409,0.2459 -3.719669,0.37409 -0.172185,0.10647 -0.135001,0.83882 0.01189,0.97927 0.02049,0.0185 0.03894,0.0246 0.06718,0.0191 0.02743,-0.005 0.06374,-10e-4 0.10033,0.009 6.71e-4,2e-4 0.0015,3.7e-4 0.0024,3.7e-4 0.0371,0.0105 0.07432,0.0273 0.102711,0.0489 0.03252,0.0247 0.05658,0.0377 0.07405,0.0411 0.01687,0.002 0.02606,-0.006 0.02688,-0.0258 10e-4,-0.0303 0.01223,-0.0487 0.02807,-0.0575 0.01586,-0.009 0.03687,-0.008 0.05972,0.002 3.35e-4,1.5e-4 0.0012,3.8e-4 0.0012,3.8e-4 0.04624,0.0182 0.09919,0.0702 0.127199,0.14457 0.02571,0.0682 0.04174,0.1029 0.06389,0.11169 0.01075,0.003 0.02278,3.3e-4 0.03822,-0.007 0.01647,-0.009 0.0366,-0.024 0.0621,-0.0445 0.03048,-0.0244 0.06187,-0.0437 0.08778,-0.0553 0.02591,-0.0116 0.0461,-0.0157 0.05494,-0.009 1.42e-4,1.1e-4 0.0012,7.3e-4 0.0012,7.3e-4 3.05e-4,1.9e-4 3.48e-4,-3.4e-4 0.0018,0 0.01768,0.0134 0.09703,0.0845 0.176169,0.15839 0.09186,0.0858 0.173191,0.1292 0.219165,0.13149 0.01109,1e-4 0.02008,-0.002 0.02628,-0.007 0.006,-0.005 0.01017,-0.013 0.01017,-0.0236 6.79e-4,-0.0212 -0.01144,-0.0534 -0.03942,-0.0964 -0.02743,-0.042 -0.04153,-0.0768 -0.04538,-0.1031 -0.004,-0.0262 0.003,-0.0438 0.01851,-0.0519 0.01535,-0.008 0.03908,-0.007 0.06927,0.006 l 5.97e-4,3.7e-4 c 0.03068,0.0121 0.06754,0.0348 0.109286,0.071 0.06951,0.0604 0.147418,0.0968 0.200055,0.10572 0.02591,0.004 0.0459,4.6e-4 0.05435,-0.0105 0.0081,-0.0112 0.0057,-0.0303 -0.01314,-0.0583 -0.01291,-0.0197 -0.01643,-0.0404 -0.01132,-0.0583 0.0051,-0.0179 0.01789,-0.0327 0.03822,-0.04 0.02032,-0.007 0.04472,-0.003 0.06748,0.009 v 3.8e-4 c 0.02368,0.012 0.04627,0.0314 0.06091,0.0583 0.02815,0.0517 0.113227,0.1235 0.189305,0.15951 0.04725,0.0223 0.07488,0.0337 0.08778,0.0351 0.0117,5.4e-4 0.0061,-0.01 -0.01553,-0.031 -0.02002,-0.0195 -0.02684,-0.0342 -0.02389,-0.0441 0.003,-0.01 0.01583,-0.0154 0.03524,-0.0157 0.01941,-2e-4 0.04518,0.004 0.07465,0.0138 3.35e-4,1.4e-4 0.0012,3.6e-4 0.0012,3.6e-4 0.02988,0.009 0.063,0.0244 0.09675,0.0441 0.0376,0.022 0.06148,0.0313 0.07703,0.031 0.01503,-7.2e-4 0.0203,-0.0145 0.0203,-0.04 0,-0.0121 0.0034,-0.021 0.0096,-0.0262 0.006,-0.005 0.01535,-0.007 0.02866,-0.005 6.8e-4,7e-5 0.002,3.7e-4 0.003,3.7e-4 0.02662,0.003 0.06907,0.0209 0.130783,0.0534 0.04105,0.0217 0.0718,0.0374 0.09436,0.0471 0.02043,0.008 0.03461,0.0119 0.04121,0.007 0.01412,-0.01 5.32e-4,-0.0515 -0.02747,-0.13373 -0.02571,-0.0758 -0.03705,-0.11605 -0.02568,-0.12963 0.006,-0.007 0.01685,-0.007 0.03463,-0.001 3.47e-4,1.6e-4 0.0024,3.8e-4 0.0024,3.8e-4 0.01789,0.005 0.04203,0.0158 0.07465,0.0314 0.05853,0.0281 0.09151,0.0409 0.111678,0.04 0.01971,-0.001 0.02449,-0.019 0.02449,-0.0531 0,-0.0218 0.0096,-0.0416 0.02508,-0.056 0.956369,-0.87085 0.567225,-0.98406 1.847956,-2.04059 0.07944,-0.0631 0.203455,-0.23506 0.20877,-0.4718 0.01913,-0.85269 0.24392,-0.96644 0.597903,-1.35341 0.172606,-0.20441 0.208378,-0.32934 0.173121,-0.49403 -0.07175,-0.31793 0.07062,-0.20069 0.172615,-5.2e-4 0.04898,0.1105 0.166837,0.27931 0.262,0.37517 0.22695,0.22864 0.222007,0.31642 -0.01292,0.23306 -0.102145,-0.0363 -0.214283,-0.0667 -0.249597,-0.0667 -0.185904,0 -0.841023,1.19916 -0.667662,1.2733 0.0951,0.0537 0.170521,-0.20748 0.629933,-0.2707 -0.219752,0.13332 -0.408132,0.28466 -0.540003,0.50065 0.01154,0.0991 0.243516,-0.0782 0.97923,0.2041 0.419759,0.21051 0.905188,0.94062 0.693981,1.06247 -0.134001,0.0773 0.163456,0.5747 0.246499,1.13481 0.08588,0.69234 0.316635,1.33985 0.762744,1.8743 -0.09601,-0.31555 -0.134826,-0.56927 -0.08887,-0.54618 0.13245,0.0668 0.2354,0.37045 0.334829,0.55652 0.282098,0.58647 0.700182,1.07455 1.181324,1.50378 -0.387,-0.64862 -0.866808,-1.35595 -1.05993,-2.12239 0.687426,1.07234 1.612676,2.04701 2.707347,2.74198 0.03752,-0.0429 0.525501,-2.60001 0.453249,-3.77389 -0.02747,-0.73125 -0.231648,-1.43436 -0.393781,-2.1425 -0.03875,-0.1916 -0.03884,-0.33428 0.145227,0.20247 0.386938,1.12833 0.51227,1.81145 0.507979,2.77089 0.203803,0.56043 -0.54613,2.06645 0.07597,2.10363 0.04722,0.005 0.677887,-1.27708 0.716235,-1.25987 -0.240487,0.73164 -0.575669,1.45426 -0.655218,2.22977 0.275451,-0.3705 0.238425,-0.54325 0.936893,-1.85105 0.403396,-0.71503 0.679166,-1.48695 0.984436,-2.24535 0.03329,-0.10344 0.129286,-0.21905 0.01915,0.21438 -0.350062,1.39216 -1.62692,3.75979 -1.356913,4.09832 0.08422,0.0898 0.216598,0.0921 0.64482,-0.17254 0.575841,-0.42325 0.656058,-0.4794 1.04554,-0.78658 0.263429,-0.20777 -0.292559,0.39696 -0.297408,0.41129 0.05431,0.13263 2.485245,-2.24739 4.17722,-0.36093 0.6711,-1.03939 0.793907,-2.30654 0.874314,-3.51287 0.06291,-0.61232 -0.03751,-1.21741 -0.0904,-1.82469 0.109542,-0.29474 0.215892,-0.57071 0.28504,-0.40624 0.249779,0.58996 0.349037,1.55106 0.38174,2.93266 0.337006,-1.4414 0.20142,-2.94642 -0.11837,-4.37906 -0.0612,-0.2473 -0.0695,-0.38304 -0.0227,-0.36846 0.412415,0.12807 0.60494,1.24848 0.69346,2.13909 0.08748,-1.7402 0.784347,-3.21171 0.784347,-3.62118 0,-0.10608 0.11346,-0.20969 0.20072,-0.26004 0.0873,-0.0504 0.0152,0.70302 -0.23513,1.66037 -0.11809,0.45143 -0.25118,1.10397 -0.296127,1.44952 -0.147932,0.58796 -0.150801,1.17304 -0.17878,1.77715 -0.02013,0.35015 -0.05116,0.45988 -0.154291,1.34987 0.392378,-0.82397 1.824748,-2.2643 2.050268,-2.07354 0.29622,0.27667 0.23308,0.80486 0.19262,1.01782 0.5292,-0.55053 0.97116,-1.44506 1.27628,-2.18673 l 5.1e-4,0.008 0.002,-0.007 c 0.12369,0.74243 0.0798,0.95517 0.0522,1.28313 -0.0277,0.32796 0.97732,-1.44365 1.42942,-2.16454 0.0797,0.49588 -0.0248,1.17328 0.0134,1.18077 1.0603,-1.17358 0.53769,-2.67775 1.15326,-3.42634 0.093,-0.0872 0.44997,0.66039 0.48136,0.50532 0.0755,-0.3341 -0.34425,-1.41165 -0.44744,-1.66915 -0.0417,-0.10403 -0.3854,-0.96651 -0.50849,-1.46968 -0.0578,-0.23615 -0.0519,-0.369 0.16997,0.0769 0.20805,0.41867 0.30638,0.61153 0.47542,0.94258 0.48324,-2.09368 -0.97838,-3.22106 -0.80181,-3.38638 0.3669,0.29713 0.62817,0.70865 0.90462,1.08981 0.0161,-1.44531 -1.25829,-2.39874 -1.10377,-2.45121 0.64642,-0.21952 1.19501,-0.32111 1.87325,-0.36764 -0.98843,-1.04748 -1.64468,-1.16087 -2.89438,-1.81202 -3.11046,-1.34527 -2.00616,-0.81324 -4.923278,-1.3348 -0.483596,-0.16583 2.544508,0.0658 2.348598,-0.116 -0.42761,-0.43485 -4.616462,-1.22424 -4.461806,-1.49235 0.06191,-0.10746 0.185372,0.22712 1.818991,0.38188 -0.947495,-0.41795 -0.88385,-0.86605 -1.581261,-1.07746 -0.366332,-0.15066 -1.713666,0.3113 -1.589051,0.16281 0.09573,-0.13148 0.721057,-0.33691 0.74672,-0.41857 -2.182537,-0.49847 -4.466443,-0.41301 -6.671855,-0.11311 -0.773057,-0.0965 1.69383,-0.61268 2.448954,-0.86045 -3.138711,0.11574 -3.861727,0.53863 -5.292709,1.07672 z m 0.60871,2.27419 c 0.207749,0.0455 2.527484,1.61456 3.129525,2.9621 0.09135,0.20444 0.231677,0.47202 0.311609,0.59479 0.10975,0.16851 0.134682,0.25031 0.09922,0.24805 -0.09099,-2.7e-4 -0.400141,-0.44539 -0.454755,-0.47178 -0.04541,-0.0162 0.318603,1.762 0.06249,1.26249 -0.03008,-0.0866 -0.0093,-0.26791 -0.12196,-0.58756 -0.03403,-0.0963 -0.133177,-0.13495 -0.150507,-0.15063 -0.04845,-0.0331 -0.196464,0.16747 -0.09567,0.61166 0.05848,0.25764 -0.0094,0.5741 -0.02325,0.58709 -0.125004,-0.0571 -0.06766,-0.38419 -0.137639,-0.50604 -0.242535,-0.42234 -0.01986,-0.50234 -0.288998,0.16849 -0.06745,0.21007 -0.06731,0.31021 0,0.44803 0.0696,0.14263 0.07891,0.26438 -0.02897,0.20774 -0.06353,-0.0334 -0.09585,-0.16598 -0.143141,-0.19731 -0.09978,-0.0605 -0.107049,0.24827 -0.163818,0.30222 -0.03207,0.0779 -0.1379,-0.3643 -0.17415,-0.57206 -0.136646,0.14981 -0.351149,0.31414 -0.392236,0.25635 -0.03087,-0.025 0.128903,-0.30548 0.211367,-0.44126 0.123659,-0.25032 -0.184768,-0.42481 -0.253215,-0.62735 -0.01885,-0.0708 0.07883,-0.0111 0.11415,-0.0161 0.135828,-0.006 -0.07227,-0.29415 -0.140068,-0.38347 -0.177267,-0.20841 -0.369396,-0.37575 -0.471285,-0.64958 -0.06814,-0.18314 0.319185,0.31841 0.372546,0.2851 0.009,-0.009 0.0069,-0.0787 -0.0036,-0.18552 -0.02765,-0.28505 -0.143779,-0.91493 -0.14883,-1.23455 -0.0018,-0.14709 -0.03639,-0.37797 -0.07545,-0.50695 -0.125363,-0.34523 -0.759919,-0.99249 -1.036095,-1.12604 -0.400954,-0.1914 -1.236167,0.0116 -1.618506,0.3943 -0.259187,0.25936 -0.943182,1.32215 -0.07131,2.21175 0.146208,0.14918 0.147356,0.15517 0.01344,0.0894 -0.463622,-0.26175 -0.675773,-0.73687 -0.898153,-1.19631 0.01222,-0.0423 0.02381,0.0197 0.250781,0.073 0.06628,-0.0739 -0.02259,-0.11375 -0.0064,-0.30216 0.0034,-0.0556 0.09992,-0.73734 0.557588,-1.12448 0.331887,-0.28086 1.165233,-0.61615 1.775293,-0.42341 z m 0.777197,1.48426 c 0.200555,0.50112 0.01025,0.64081 -0.180839,0.13153 -0.275913,-0.73536 -0.713954,-1.14302 -1.113073,-1.14302 -0.114553,0 -0.10277,-0.0395 -0.0719,-0.0861 0.81498,-0.22117 1.316746,0.97499 1.365812,1.09759 z m -0.792199,-0.0506 h 5.17e-4 c 0.04139,-0.0166 0.369473,0.91037 0.398425,0.43718 0.0067,-0.10887 0.02237,-0.13137 0.07803,-0.0796 0.05575,0.052 0.05425,0.14893 -0.0078,0.33951 -0.07747,0.2415 -0.06796,0.29987 0.102836,0.61444 0.214394,0.39496 0.262369,0.76361 0.08113,0.62321 -0.443403,-0.3435 -0.04665,1.71137 0.204122,1.1312 0.02005,-0.0465 0.03929,0.0714 0.04237,0.262 0.0061,0.38551 0.0031,0.46278 0.484462,0.62865 0.413521,0.14251 0.842783,0.44968 1.075133,0.87772 0.320158,0.58979 0.702076,0.81649 0.47749,0.81649 -0.03755,0 -0.224676,-0.17487 -0.415995,-0.38861 -0.728229,-0.81357 -1.495741,-1.43043 -1.045931,-0.84078 0.300586,0.39408 0.05139,0.26671 -0.441317,-0.22582 -0.479744,-0.47955 -0.700253,-0.62568 -0.608748,-0.40308 0.06894,0.16772 -0.06693,0.11388 -0.171049,-0.0677 -0.297462,-0.34871 -0.813171,-0.53008 -1.230416,-0.71417 -0.511646,-0.19988 -0.988612,-0.50063 -1.09554,-0.69092 -0.07993,-0.1423 -0.07744,-0.14384 0.05323,-0.0393 0.608933,0.3666 1.302219,0.62203 1.983341,0.82842 0,-0.0366 -0.463086,-0.63336 -1.194759,-0.72553 -0.490376,-0.0618 -1.058968,-0.33116 -1.213363,-0.57516 -0.199084,-0.31462 -0.147205,-0.39276 0.109554,-0.16588 0.507991,0.45209 1.235836,0.53163 1.886707,0.62786 0.498489,0.1252 -0.235002,-0.41963 -0.450102,-0.6341 -0.215186,-0.15579 0.158127,-0.1327 -0.327113,-0.45024 -0.191583,-0.11342 -0.330212,-0.22318 -0.307991,-0.24391 0.04646,-0.0541 0.754489,0.4272 1.088305,0.26355 0.131735,-0.0479 0.36724,0.0621 -0.02584,-0.47077 -0.198037,-0.23508 -0.182919,-0.3457 0.02274,-0.16537 0.157372,0.14844 0.253157,0.13805 0.432833,0.0963 -0.113654,-0.32577 -0.107296,-0.61785 0.01468,-0.66579 z m 1.867586,0.57205 c -0.101126,-9e-4 -0.08041,0.14154 -0.09457,0.23461 -0.02955,0.2203 0.08133,0.64122 0.166398,0.69401 0.09739,-0.0564 0.07967,-0.29777 0.09147,-0.41744 0.06632,-0.26756 0.02406,-0.51447 -0.163298,-0.51118 z m 10.272636,0.86361 c 0.894557,0.521 1.557167,1.35953 2.046487,2.58966 0.20322,0.51055 0.26883,0.80345 0.21612,0.76912 -0.0649,-0.0359 -0.93861,-2.48767 -3.067092,-3.54198 -1.214249,-0.60146 -0.385482,-0.31538 0.804485,0.1832 z m -16.196822,1.24065 c 1.043972,0.65637 2.303059,0.22903 2.453063,0.28722 0.04085,0.0197 -0.55099,0.1978 -0.540536,0.27587 1.380633,-0.12397 2.182328,0.36335 1.593734,0.22963 -0.508767,-0.12035 -0.583096,0.0804 -1.369955,0.084 0.206087,0.4627 0.580439,0.95453 0.814937,1.34307 -0.219916,-0.12323 -0.401176,-0.3125 -0.587561,-0.48267 0.322432,1.17995 0.25997,1.38644 1.051066,1.85467 0.47659,0.26792 0.51782,0.10614 1.010272,0.33745 -0.353004,0.1077 -0.812726,-0.0187 -1.201477,-0.0956 0.515535,0.78894 0.294156,1.62591 0.486789,2.48667 -8.7e-5,2.1e-4 5.24e-4,0.002 5.16e-4,0.002 -0.04405,0.0917 -0.30824,-0.67735 -0.31627,-0.68111 -0.0297,0.57605 0.0012,1.17231 0.190186,1.72289 0.09243,0.21715 0.338151,0.79838 0.124594,0.56169 -1.378604,-1.65542 -0.109939,-1.80208 -1.070207,-3.83035 0.31935,0.19379 0.504303,0.64364 0.567373,0.65213 0.0071,-2.7e-4 0.0111,-0.007 0.01137,-0.0207 -0.147769,-0.57884 -0.492363,-1.09273 -0.826823,-1.58078 -0.278669,-0.45947 -0.192019,-0.90526 -0.394294,-1.5012 -0.144151,-0.51303 -0.498821,-0.82137 -0.97255,-1.00047 l -5.17e-4,-5.2e-4 c -9.02e-4,-2.1e-4 -0.0021,-3.3e-4 -0.0021,-5.2e-4 -0.401906,-0.10734 -0.711021,-0.38253 -1.02161,-0.64337 z m 21.574729,3.345 c -0.62458,-1.16852 -1.76095,-1.82944 -2.81895,-2.5554 -0.32196,-0.24533 -0.022,-0.13075 -0.003,-0.11794 0.89447,0.45701 1.70769,1.06459 2.47762,1.70641 0.082,-1.38991 -0.99337,-2.63843 -0.59185,-2.18795 1.01728,1.02875 0.94664,3.1671 0.93618,3.15488 z m -14.321425,-1.2909 c 0.583269,2.05312 1.787919,3.84566 2.711462,5.75314 -0.0081,-0.38046 -0.08315,-1.31438 -0.09146,-1.45315 0.376379,0.53672 0.43658,4.32531 0.322461,4.32531 -0.06465,0 -0.130602,-0.16892 -0.236678,-1.28416 -0.241032,-2.53364 -2.491515,-4.81816 -2.821533,-7.02489 -0.07851,-0.50813 -0.246126,-1.7204 0.115748,-0.31625 z m -10.615873,0.19734 c 0.26938,0.13073 0.292852,0.30817 0.329179,0.55452 0.01213,0.26994 0.0044,0.36294 -0.06718,0.25222 -0.232582,-0.69588 -0.235653,-0.76398 -0.261999,-0.80674 z m 3.024045,0.29974 c -0.342178,-0.13275 -0.389907,0.0423 -0.946707,0.31627 -0.428314,0.24122 -0.588339,0.50104 -0.894535,0.65369 -0.291516,0.14525 -0.400256,0.54329 -0.499711,0.55501 -0.05339,0.008 -0.03424,-0.11935 -0.21859,0.0109 -0.07361,0.052 -0.234954,0.15938 -0.202104,0.0776 0.07954,-0.1809 0.686916,-0.64924 0.804597,-0.90228 0.0789,-0.16935 -0.03735,-0.40021 -0.192783,-0.49608 -0.09739,-0.0601 -0.20923,-0.14405 -0.14059,-0.2109 0.07123,-0.0942 0.427459,-0.0214 0.543124,-0.1297 0.04482,-0.0419 0.105644,-0.0576 0.249091,0.0275 0.171022,0.1036 0.473252,0.0803 0.569991,0.0221 0.100293,-0.0608 -0.0034,-0.13234 0.03511,-0.1504 0.01435,-0.006 0.17242,0.13129 0.501572,-0.0104 0.163106,-0.0729 0.277018,0.11126 0.391535,0.23669 z m 18.937723,-0.20244 c -0.0543,-0.20124 0.42301,0.22124 0.48802,0.96627 0.003,0.4529 -0.26979,1.00595 -0.19862,1.3162 0.12672,0.55449 -0.71472,2.06086 -0.85272,2.06086 -0.0301,0 -0.71278,1.22786 -0.81562,1.04591 0.52259,-1.02743 0.52177,-1.14318 0.59753,-2.22622 0.0357,-0.2709 0.25007,0.93681 0.25007,0.93681 0.25774,-0.53837 0.42949,-1.09375 0.47674,-1.68779 0.0594,-0.49229 -0.12611,-0.92359 -0.30218,-1.36422 -0.0638,-0.2974 0.26782,0.0399 0.4275,0.45431 0.19011,-0.49876 0.11016,-1.01713 -0.0707,-1.50213 z m -20.591846,0.53942 c -0.05927,0.0607 0.04822,0.33567 0.09043,0.3483 0.06065,-0.007 0.201013,-0.23037 0.201013,-0.26818 -0.09109,-0.18556 -0.190248,-0.17059 -0.291443,-0.0801 z m -0.100249,0.35764 c -0.03738,0.001 -0.143389,0.15221 -0.0465,0.1334 0.102197,-0.0198 0.08875,-0.13716 0.0465,-0.1334 z m 0.544928,0.20877 c 0.216773,0.0127 -0.539835,0.63015 0.05945,1.60013 0.286073,0.46286 0.27861,0.52305 -0.01982,0.16224 -0.545733,-0.65981 -0.641624,-1.10578 -0.326974,-1.51481 0.197902,-0.25724 0.251484,-0.25154 0.287344,-0.24756 z m -1.6847,1.05529 c 0.131292,-0.061 -0.211253,0.28681 -0.270989,0.34671 -0.190577,0.17296 -0.392161,0.44432 -0.44769,0.6035 -0.07809,0.22379 -0.173579,0.37664 -0.208838,0.37583 -3.09e-4,9e-5 -0.0012,0.001 -0.0012,0.001 -0.03457,0.005 -0.0079,-0.1034 0.0081,-0.15957 0.205795,-0.77538 0.760251,-1.09079 0.920617,-1.16747 z m 3.177246,1.79248 c -0.372665,0.15786 -0.758138,0.28597 -1.138986,0.42336 -0.244553,0.089 0.15725,-0.21736 0.581934,-0.41419 0.711256,-0.32947 0.630339,-1.13639 0.76981,-1.0378 0.05457,0.0271 -0.179321,0.99556 -0.212758,1.02863 z m -4.00165,0.84188 c -0.06981,0.25859 -0.170513,0.31637 -0.194356,0.23828 0.105181,-0.5082 -0.07058,-0.64413 -0.609782,-0.6816 -0.643696,0.0371 -0.25818,-0.17301 0.05451,-0.17301 0.52495,-0.0128 0.868725,0.0499 0.749628,0.61633 z m 13.324258,0.86545 c 0.442865,1.42041 0.392935,2.57172 -0.179317,4.14858 -0.496748,1.36875 -0.532789,1.12157 -0.483159,0.9854 0.501167,-1.37353 0.66678,-2.444 0.681092,-3.31039 -0.02074,-1.06123 -0.20888,-2.15872 -0.655267,-3.12849 -0.161087,-0.3595 0.313658,0.16845 0.636651,1.3049 z m -15.110234,-0.70888 c -0.251931,0.14339 -0.492223,0.17167 -0.490925,0.0823 0.0011,-0.0516 0.509826,-0.33062 0.648539,-0.36273 0.183431,-0.0223 0.0069,0.18676 -0.157614,0.28043 z m 3.640382,-0.0665 h 5.87e-4 c 0.180301,0 0.533612,0.21033 0.469475,0.30469 -0.181329,0.1247 -0.368127,-0.0435 -0.540934,-0.14216 -0.106034,-0.0868 -0.09571,-0.16229 0.07091,-0.1626 z m -0.553239,0.85974 c 0,0.11502 -0.05001,0.13072 -0.228735,0.0648 -0.05313,-0.0169 -0.219592,-0.0826 -0.04717,-0.15841 0.103352,-0.045 0.275904,-0.026 0.275904,0.0936 z m 1.203739,0.3228 c -0.04256,0.01 -0.348911,-0.19627 -0.281356,-0.25856 0.171845,-0.16303 0.419137,0.25856 0.281356,0.25856 z m -1.696551,-0.1364 c -0.0099,0.0993 -0.16638,0.0936 -0.16638,-4e-4 0,-0.10627 0.176681,-0.10291 0.16638,4e-4 z m -0.601896,0.0954 c 0.05846,0.049 0.01568,0.1285 -0.05508,0.1285 -0.01073,0.001 -0.08431,-0.0142 -0.08434,-0.0752 -2.6e-5,-0.0504 0.08585,-0.10325 0.13942,-0.0533 z m -0.229497,0.71094 c 0.254134,0.26215 -0.221943,0.0934 -0.167448,-0.061 0.02473,-0.0736 0.08417,-0.0207 0.167448,0.061 z m 2.063229,-0.58193 c 0,0.0411 -0.05534,0.0742 -0.123072,0.0742 -0.101554,0 -0.174015,-0.0777 -0.09023,-0.12856 0.07906,-0.0481 0.213302,-0.0104 0.213302,0.0544 z m -2.29912,0.0741 c 0,0.0991 -0.16639,0.0952 -0.16639,2.3e-4 0,-0.10007 0.16639,-0.096 0.16639,-2.3e-4 z m 1.80675,0.18775 c 0.08247,0.0904 0.07745,0.1113 -0.02696,0.1113 -0.11725,0 -0.221793,-0.0763 -0.196384,-0.145 0.02317,-0.0628 0.150814,-0.0466 0.223344,0.0337 z m 0.971173,0.004 c 0.181758,-0.01 0.339142,-0.0241 0.122278,0.17744 -0.540812,0.34841 -0.980411,0.0352 -0.122278,-0.17744 z m -1.299881,0.25206 c 0,0.0719 -0.07426,0.12728 -0.138896,0.12328 -0.07675,-0.002 -0.16485,-0.13045 -0.06437,-0.17907 0.09288,-0.0462 0.203266,0.009 0.203266,0.0558 z m 6.197206,-0.0415 c 0.170776,0.50637 0.40012,0.96612 0.924123,1.44727 0.430748,0.39552 1.00068,1.10003 0.837081,1.17551 -0.06461,0.0298 -0.453602,-0.41501 -0.636657,-0.59139 -0.415797,-0.38282 -0.608388,-0.49193 -0.987993,-0.846 -0.295725,-0.2256 -0.368918,-0.52106 -0.431252,-0.85978 -0.07266,-0.2599 -0.0194,-0.90951 0.294698,-0.32561 z m -6.828974,0.31443 c -0.05795,0.009 -0.09008,-0.0549 -0.10369,-0.0827 -0.135572,-0.20844 0.537744,-0.1083 0.10369,0.0827 z m 1.070787,0.31566 c 0.35484,0.35646 -0.107843,0.23253 -0.225031,0.0788 -0.142869,-0.18663 -0.01246,-0.32969 0.225031,-0.0788 z m -0.482314,0.38414 c -0.344587,0.0369 -0.616649,-0.20209 -0.616649,-0.2894 -0.02744,-0.25411 0.431202,0.15673 0.616649,0.2894 z m 16.289507,-0.56891 c 0.0788,0.5368 -0.07294,1.10944 -0.196375,1.63451 -0.351238,1.51528 -1.128612,2.86138 -2.457732,3.69087 -0.392048,-0.0562 0.504659,-0.0699 1.665915,-2.3938 0.507703,-0.91615 0.757237,-1.922 0.988192,-2.93158 z m -6.719236,4.21231 c 0.226616,0.33298 0.354438,1.55292 0.236702,1.15187 -0.219241,-1.1034 -1.080486,-1.90262 -1.818803,-2.69026 -0.441491,-0.38132 0.808097,0.2837 1.582101,1.53839 z"
         id="path90-3"
         sodipodi:nodetypes="csccccccccccccsccccccccccccsccsscccsccsssscsscccccscccscccccscccccssccccccccsccccccscccscccccccccsccccccccccccsccscccccsccccsccsscscccscccccccccscccccccccszccccccccczcccccccssccscscccccccsccsscccccccscsccsccccccccsccccccccccccccccccccccccsccsssscssccccccscccccccccccscccscccsscccccccccccccccccccccssccccsccccccccccccccscscscccccccccscccczcccccccccccccccccccccccccccccccccccccccccccccccccccccccccccccccccccccccccccccccccccccccccccccccccccccccccccccccccc" /></g><g
       id="g183"
       inkscape:label="Cloak"
       style="fill:#000000;fill-opacity:1"><path
         style="fill-rule:evenodd;stroke-width:0.396289;fill:#000000;fill-opacity:1"
         d="m 120.58149,150.02671 c -4.9164,0.67465 -10.05508,2.49346 -13.20319,6.48395 1.12998,0.47226 2.175,0.55246 2.91954,0.83224 0.53988,0.20921 0.75996,0.78187 0.98138,1.26688 0.57743,1.24346 1.54878,2.30201 2.71001,3.04786 2.29906,1.16808 4.82921,1.95357 7.39769,2.22504 -1.15216,-2.48706 2.52658,-9.34154 9.60134,-12.09384 -1.84564,0.39763 -3.64477,0.32147 -5.46337,-0.16525 -1.16542,-0.33634 -2.33665,-0.70267 -3.42497,-1.24804 -0.46102,-0.36033 -0.96419,-0.38174 -1.51843,-0.34884 z"
         id="path20-6-4"
         sodipodi:nodetypes="cccccccccc" /><path
         id="path411-7-6"
         style="fill-rule:evenodd;stroke-width:0.396289;fill:#000000;fill-opacity:1"
         d="m 105.6665,119.55723 c 1.3621,1.59749 0.68184,2.72492 0.74762,2.91647 0.44818,1.3052 -0.4528,1.8146 0.22019,2.89971 0.1007,3.33121 -0.59895,0.0541 -0.76868,2.05324 -0.19576,2.30568 -1.58935,2.64627 -1.58935,2.64627 l -1.37351,1.18166 0.0208,-0.80709 -0.4652,0.57834 c -1.3962,2.77403 -1.11996,1.60737 -1.03103,0.0631 -1.765463,0.51002 -2.636875,4.13381 -3.887771,5.05091 -0.228261,0.16735 -1.322568,-1.3799 -2.609181,-0.65459 -1.648056,0.94142 -3.50413,2.27575 -3.450295,1.08525 -0.372386,0.45803 -0.579816,-0.37235 -0.651506,-0.90041 0.199026,2.67393 -1.275729,-0.76157 -1.480106,0.80961 -1.021011,-0.0481 -2.149028,-2.47294 -1.929066,-1.77518 0.289627,0.91876 -0.97528,-0.70615 -1.095629,-2.12948 -0.03838,-0.45389 -0.602999,-2.45371 -0.661573,-2.62697 -0.901615,0.31526 -3.556187,2.41691 -4.637552,3.10949 0.03276,0.50951 0.848456,2.66677 1.880281,3.34361 1.413874,2.29946 2.289644,4.87298 3.302124,7.36492 0.643927,1.68931 0.918234,2.78672 1.661043,4.43342 0.234728,0.48981 0.431942,1.02393 0.819071,1.41749 0.2417,-0.78172 1.148523,-1.28692 1.318783,-2.08566 0.211608,-1.07317 0.816765,-1.44797 1.518091,-2.29712 0.562339,-0.68382 1.287247,-1.22899 1.752865,-1.99213 0.12847,0.11624 0.25683,0.23271 0.384989,0.34933 -1.128818,1.42925 -1.437354,1.50827 -2.422494,3.04191 2.273726,2.54664 5.030017,5.00719 8.315675,6.07847 3.172241,0.90501 4.752761,-0.52648 5.882321,-2.17713 1.1412,-2.34049 2.6094,-3.75284 4.89634,-4.95267 3.90782,-2.09303 4.14879,-2.83522 4.12947,-8.38088 0.1687,-8.6e-4 0.33724,-0.003 0.50591,-0.004 0.326,5.40486 -0.37771,6.80813 -4.81474,9.47023 -1.39375,0.81949 -2.61577,1.95708 -3.53725,3.26698 -1.51241,2.83741 -2.74763,3.62888 -3.18689,3.84318 0,2.8e-4 -6.2e-4,9.7e-4 0.003,0.001 0.98064,0.78872 1.92743,1.62276 3.00395,2.28048 3.25868,-2.75426 6.71662,-4.82584 10.85257,-5.92987 2.56566,-0.6283 3.65609,-0.75011 4.72736,-0.32349 1.55733,0.64236 3.53789,1.25018 5.20072,1.53685 l 4.57853,-0.12609 c 0.54617,-0.28016 0.76884,-0.24983 1.32085,-0.5209 -5.74606,-2.5874 -7.34953,-3.42051 -8.69571,-5.84628 0.12293,-0.15054 0.24051,-0.22588 0.39699,-0.35024 0.24572,0.41309 0.48518,0.83308 0.78342,1.21182 2.14241,2.34413 5.40801,3.33323 8.21293,4.64622 1.49801,-0.7139 2.04602,-0.64644 2.47737,-0.94671 -1.46213,-5.46605 -6.90785,-8.71749 -11.90263,-10.28568 -2.04411,-0.54925 -3.81956,-1.05894 -5.72368,-1.61437 -2.93495,-0.89988 -6.24068,-1.07022 -8.94571,-0.37155 -0.18334,0.0716 -0.32743,0.0834 -0.30644,-0.15451 -0.0463,-0.18375 -0.10214,-0.3747 0.15451,-0.35967 1.70235,-0.44893 3.48273,-0.52226 5.23224,-0.39171 3.03,0.3771 5.97244,1.31115 8.91263,2.13734 -0.95412,-1.41549 -2.98257,-2.19485 -4.64778,-2.47944 -5.16367,-0.19982 -7.4398,0.0486 -8.33902,-1.19217 -0.7256,-0.78577 -1.11053,-1.80471 -1.5689,-2.75332 0.14621,-0.0899 0.29212,-0.18022 0.43822,-0.27027 0.39499,0.82121 0.73602,1.6714 1.28622,2.41019 1.52916,1.43098 2.55966,0.93443 6.30866,1.18856 -0.73562,-0.5173 -0.92069,-1.20037 -1.26194,-1.97146 -0.16448,-0.49805 -0.80304,-0.87919 -1.07382,-1.30018 -0.1149,-0.0128 -0.68444,0.18315 -0.79945,0.23875 -0.16308,-0.24988 -0.24428,-0.16739 -0.40772,-0.41703 0.21295,-0.14686 0.93378,-0.41123 1.1834,-0.45889 0.37898,0.023 0.71327,0.24713 1.06969,0.3607 0.75692,0.21077 1.59148,0.30368 1.98904,-0.46043 0.22565,-0.37906 0.26373,-0.82423 0.25682,-1.25523 -0.0575,-3.25039 -0.28419,-5.19391 -0.67075,-6.08024 -1.43623,-3.3878 -2.52252,-5.10459 -3.92741,-5.34283 z m 2.42148,18.11977 c 0.4094,0.73166 0.62028,1.43145 1.57974,1.47485 2.23302,-0.0709 3.43644,-1.3945 3.84008,-1.31052 0.72061,0.26093 -0.55531,3.72936 -0.66404,3.99098 -0.4189,1.14362 -1.84481,1.49198 -2.19005,1.32085 -0.0533,-0.11437 -0.26973,-0.30159 -0.15503,-0.3974 1.43666,-1.10623 2.40663,-1.85526 2.72748,-4.24315 -1.13254,0.73446 -2.40717,1.24106 -3.67936,1.67639 -1.12379,0.15788 -1.3985,-1.36119 -1.82573,-2.12391 -0.10724,-0.2716 0.15498,-0.34764 0.36691,-0.38809 z m 9.109,6.4823 c 2.48951,1.14946 4.43192,3.20888 6.63629,4.84259 1.7744,0.67765 3.61587,0.91952 5.50457,0.98082 0.16865,0.21815 0.33678,0.43645 0.50488,0.65474 -3.84116,0.2654 -7.45095,-1.27635 -11.10113,-2.25877 -1.89589,-0.51832 -3.79879,-0.81272 -5.72885,-1.20045 0.0556,-0.27819 0.0147,-0.20248 0.0708,-0.48059 1.26781,0.0908 2.42991,0.2034 3.63698,0.41806 1.94956,0.33331 3.82319,0.99114 5.72265,1.51257 l -5.44417,-4.13011 c 0.0393,-0.0797 0.10714,-0.21246 0.19798,-0.33886 z m -22.151102,5.01984 c 3.970718,2.81524 5.119282,3.17657 9.439732,0.33848 0.0767,0.15916 0.153,0.31821 0.22841,0.47801 -1.89635,1.49323 -3.46778,2.6774 -5.952089,1.88981 -1.398024,-0.47764 -2.606129,-1.35559 -3.833875,-2.15181 -0.201244,-0.16707 0.0014,-0.36042 0.117822,-0.55449 z"
         sodipodi:nodetypes="cscscccccsccccsscccccccccccccccccccccccccccccccccccccccccccccccccccccccccccccccccscccccccccscccccc" /></g><g
       id="g184"
       inkscape:label="Tail"
       style="fill:#000000;fill-opacity:1"><path
         id="path416-7-9"
         style="fill-rule:evenodd;stroke-width:0.396289;fill:#000000;fill-opacity:1"
         d="m 137.30628,140.4565 c -0.12574,0.0633 -0.11156,0.25476 -0.19289,0.36757 -0.0807,0.17332 -0.1375,0.41706 -0.027,0.57355 0.43899,0.17956 0.93123,0.24364 1.30882,0.55283 1.25389,0.8301 2.49679,1.71463 3.5047,2.8393 0.88669,0.99463 1.52041,2.30741 1.39493,3.66469 -0.066,0.86878 -0.49127,1.74754 -1.26634,2.19559 -0.73179,0.46655 -1.61221,0.6673 -2.48455,0.74311 -0.31008,-0.0206 0.0292,0.14884 0.12085,0.24583 0.5263,0.4185 0.86509,1.01157 1.2425,1.55566 0.79434,-0.53302 1.70694,-0.97366 2.24291,-1.80022 0.43289,-0.57807 0.6965,-1.2652 0.80121,-1.97666 0.19562,-1.18623 0.10506,-2.43083 -0.31288,-3.5614 -0.42788,-1.09455 -1.28345,-1.95918 -2.23505,-2.62271 -1.04023,-0.76252 -2.19375,-1.34774 -3.30128,-2.00229 -0.2834,-0.17367 -0.48972,-0.44381 -0.61178,-0.74853 -0.0641,-0.0329 -0.11662,-0.0909 -0.18423,-0.0263 z" /><path
         id="path409-7-3"
         style="fill-rule:evenodd;stroke-width:0.396289;fill:#000000;fill-opacity:1"
         d="m 131.01126,136.51581 c 0.0689,0.30795 0.19312,0.63211 0.42691,0.84894 0.46847,0.36862 1.1419,0.39372 1.53473,0.87052 0.35279,0.36365 0.64137,0.84595 0.94185,1.27593 -0.29853,-0.2161 -0.58532,-0.46328 -0.95042,-0.55719 -0.5127,-0.21962 -0.96742,-0.57306 -1.52403,-0.68445 -0.22404,-0.0548 -0.35361,-0.65207 -0.56718,-0.73806 -0.10408,0.25503 -0.061,1.02017 -0.0298,1.26014 0.1312,0.64082 0.39473,1.26975 0.8191,1.77209 0.29349,0.29466 0.68773,0.45849 1.05476,0.64256 0.69552,0.30082 1.45179,0.43506 2.20333,0.49143 0.14788,0.004 0.40727,0.17425 0.21935,0.3172 -0.39119,0.045 -0.81962,0.12111 -1.00547,0.28532 1.26959,0.1098 1.99929,0.0187 2.62202,-0.45804 0.2117,-0.0979 -0.16315,-0.13391 -0.24935,-0.21087 -0.17785,-0.0998 -0.0445,-0.33306 -0.0184,-0.4834 0.10906,-0.33138 0.28645,-0.63147 0.43692,-0.93898 0.072,-0.0516 0.15061,-0.12325 0.13482,-0.21896 0.10765,-0.11609 0.371,0.13211 0.26724,-0.16206 -0.0571,-0.63309 -0.22119,-1.26772 -0.52,-1.83151 -0.15689,-0.28301 -0.37661,-0.54206 -0.69233,-0.64862 -0.45067,-0.20587 -0.93659,-0.31458 -1.41072,-0.45176 0.19672,0.32267 0.33447,0.6713 0.43053,1.03376 0.0576,0.20534 0.16307,0.39567 0.36485,0.48886 0.31865,0.15991 0.63193,0.35882 0.80322,0.68362 0.084,0.13598 0.1528,0.28075 0.21461,0.42796 -0.54672,-0.43784 -1.04009,-0.63588 -1.63818,-0.97252 -0.37585,-0.2489 -0.40153,-1.27217 -0.64851,-1.62984 -0.32085,-0.53322 -1.07551,-0.36018 -1.63857,-0.65455 -0.61102,-0.26306 -0.92061,-0.026 -1.5813,0.24248 z"
         sodipodi:nodetypes="cccccccccccccccccccccccccccccc" /></g><g
       id="g179"
       inkscape:label="Left arm"
       style="fill:#000000;fill-opacity:1"><path
         style="fill:#000000;fill-opacity:1;fill-rule:evenodd;stroke-width:0.396289"
         d="m 49.789722,152.51398 c -0.17277,0 -0.123841,0.66694 0.131797,1.56979 0.015,-0.56781 0.292825,-0.80981 0.482323,-1.27479 -0.31672,-0.0482 -0.60575,-0.31381 -0.61414,-0.295 z"
         id="path436-4-5"
         sodipodi:nodetypes="sccas" /><path
         style="fill:#000000;fill-opacity:1;fill-rule:evenodd;stroke-width:0.396289"
         d="m 50.453162,151.07708 c -0.17391,0.27543 -0.4018,0.55712 -0.72408,0.66185 -0.127476,0.0923 -0.09859,0.34555 0.0534,0.4682 1.14304,0.92237 1.985318,0.0187 1.94246,-0.98992 -0.490508,0.31393 -1.046579,0.0858 -1.27178,-0.14018 z"
         id="path435-4-4"
         sodipodi:nodetypes="ccsccc" /><path
         style="fill:#000000;fill-opacity:1;fill-rule:evenodd;stroke-width:0.396289"
         d="m 52.221282,146.35671 c -0.40856,-0.005 -1.001303,0.0315 -1.279833,0.29667 -0.41339,0.35665 -0.318487,1.06499 -0.324807,1.58576 -10e-4,0.67294 -0.10596,1.34833 -0.0346,2.01933 0.0189,0.40139 0.49153,0.72223 0.85649,0.50717 0.67743,-0.40446 0.92721,-1.23972 1.58488,-1.67085 0.46367,-0.29103 0.93197,-0.57678 1.40831,-0.8475 -0.25185,-0.4952 -0.235304,-1.04479 -0.409584,-1.56659 -0.57804,-0.10234 -1.208066,-0.32571 -1.800826,-0.32399 z"
         id="path425-5-6"
         sodipodi:nodetypes="scccccccss" /><path
         style="fill:#000000;fill-opacity:1;fill-rule:evenodd;stroke-width:0.396289"
         d="m 47.934312,150.7751 c -0.02808,0.0352 -0.253622,0.3611 -0.02834,1.46778 0.0632,0.23287 0.14852,0.46031 0.24611,0.67993 0,0 0.03748,-1.17387 0.30949,-1.42229 0.09913,-0.0905 -0.455807,-0.22198 -0.52726,-0.72542 z"
         id="path492-0-4"
         sodipodi:nodetypes="cccsc" /><path
         style="fill:#000000;fill-opacity:1;fill-rule:evenodd;stroke-width:0.396289"
         d="m 49.528957,151.47707 c 0.37209,-0.0721 0.612026,-0.34322 0.798796,-0.64648 -0.324978,-0.3552 -0.315331,-1.3257 -0.312451,-1.59357 0.008,-0.16772 -0.978947,0.73903 -1.936737,0.24159 -0.374203,1.1598 0.778954,2.0239 1.450392,1.99848 z"
         id="path491-2-7"
         sodipodi:nodetypes="cccccc" /><path
         style="fill:#000000;fill-opacity:1;fill-rule:evenodd;stroke-width:0.396289"
         d="m 47.042756,147.49798 c -0.94894,0.51627 -1.159487,2.15399 -1.082592,2.26633 0.169805,-0.43497 0.858623,-0.89687 1.293392,-0.90038 -0.354908,-0.50668 -0.287447,-0.93595 -0.2108,-1.36595 z"
         id="path490-1-4"
         sodipodi:nodetypes="cccc" /><path
         style="fill:#000000;fill-opacity:1;fill-rule:evenodd;stroke-width:0.396289"
         d="m 46.33485,143.93891 c -0.6529,0.19545 -1.026969,0.78342 -1.44636,1.27554 0.546913,-0.2227 1.132894,-0.35676 1.7222,-0.28477 0.499471,-0.10495 0.294713,-1.16157 -0.27584,-0.99077 z"
         id="path489-1-0"
         sodipodi:nodetypes="sccs" /><path
         style="fill-rule:evenodd;stroke-width:0.396289;fill:#000000;fill-opacity:1"
         d="m 56.152193,148.20601 c -0.5222,-0.0177 -0.64618,0.37522 -0.52543,0.74001 0.17395,0.52547 -0.14108,1.23975 -0.13262,1.65477 0.40707,-0.54744 1.28108,-1.38987 1.01216,-2.23116 -0.11473,-0.10762 -0.3087,-0.17795 -0.35411,-0.16362 z m -0.65645,2.39152 c 0.006,-0.002 -0.004,0.009 0,0 z"
         id="path494-4-7"
         sodipodi:nodetypes="csccccc" /><path
         style="fill:#000000;fill-opacity:1;fill-rule:evenodd;stroke-width:0.396289"
         d="m 80.659058,133.57232 c -2.15095,1.24086 -4.00059,2.98641 -5.37166,5.03949 -0.06981,0.24351 -0.91659,1.09537 -1.551651,1.87958 -0.247819,-0.0285 -0.475042,-0.14759 -0.51518,-0.16433 0.119065,-0.21767 0.566921,-0.58216 0.721825,-0.90957 -2.37951,0.62714 -4.202751,1.11329 -6.624251,1.58542 -2.79163,0.41182 -5.5351,1.1032 -8.323,1.52206 -1.71051,0.0271 -3.48225,-0.0445 -5.08135,0.66361 -1.45154,0.54195 -3.353633,1.18644 -4.821023,0.40749 -0.558266,-0.20101 -1.1755,-1.25125 -2.650632,-0.58019 -0.295567,0.0639 -0.361188,0.41358 -0.409447,0.7937 0.426183,-0.0621 0.441667,-0.33258 0.766195,-0.0713 0.809609,0.65182 0.308074,1.41905 -0.191395,1.46847 0.110089,0.27255 0.414898,0.66186 0.747715,0.57857 0.59558,-0.14905 1.412266,-0.0897 1.38168,0.26017 -0.04648,0.53168 -1.27995,0.34659 -1.419275,1.23807 -0.01456,0.44952 -0.178429,0.96594 0.32509,1.65863 0.367686,0.50583 1.450017,0.54895 2.390157,-0.17476 -0.481707,-3.51693 2.053391,-3.35503 4.196887,-2.45326 0.51862,0.36952 0.25381,2.20666 0.916667,2.32507 0.09197,-1.08704 1.52584,-1.16082 1.754838,-0.43131 0.578751,-0.4625 -1.02327,-1.89721 -0.161806,-2.34832 -0.01706,0.62469 0.60172,0.78356 0.548701,1.74878 1.87245,-0.33814 5.338232,-0.22933 7.212642,-0.0487 2.36791,0.35575 3.733287,0.80809 6.078047,1.29089 -0.75505,-0.18454 -2.0665,-1.55537 -0.47948,-0.72077 0.89151,0.40669 3.0453,0.84209 3.26244,0.77959 -0.6875,0.0104 -2.73602,-1.01989 -0.99246,-0.8832 1.03974,0.19919 3.15768,1.00557 3.50555,0.55442 -0.60604,-1.60303 1.86567,0.784 1.60141,-0.69424 1.38132,-0.62307 2.7901,-0.8605 4.26875,-0.97216 1.59588,-0.15477 3.00746,-0.9322 4.39393,-1.67011 -1.15852,-2.83781 -1.99186,-5.86803 -3.75753,-8.41064 -0.997876,-0.86916 -1.533823,-1.97229 -1.72238,-3.26115 z"
         id="path403-3-5"
         sodipodi:nodetypes="cccccccccccscsscscccccccccccccccccc" /></g><g
       id="g180"
       inkscape:label="Right arm"
       style="fill:#000000;fill-opacity:1"><path
         style="fill:#000000;fill-opacity:1;fill-rule:evenodd;stroke-width:0.36669"
         d="m 141.65624,131.67385 c 0.11249,0.41452 0.11814,0.85171 0.23417,1.26514 0.025,0.11848 0.064,-0.10441 0.0932,-0.14494 0.16443,-0.43319 0.28591,-0.90067 0.23315,-1.37002 -0.0229,-0.2011 -0.0411,-0.41979 -0.16092,-0.58742 -0.1438,-0.17786 -0.69993,-0.004 -0.39956,0.83724 z"
         id="path515-7-0"
         sodipodi:nodetypes="cccccc" /><path
         style="fill:#000000;fill-opacity:1;fill-rule:evenodd;stroke-width:0.396289"
         d="m 142.00525,129.66071 c -0.20883,0.47909 -0.56319,0.60238 -1.08147,0.57842 -0.008,0.15789 -0.0419,0.41959 -0.0975,0.56767 -0.0245,0.16654 0.0688,0.32891 0.17744,0.4481 0.14441,0.14231 0.17933,0.22814 0.38356,0.20947 -0.0365,-0.13659 -0.0391,-0.38043 -0.019,-0.52144 0.0454,-0.44884 0.81856,-0.59159 0.92606,-0.19422 0.27014,-0.70092 -0.26404,-1.07383 -0.28909,-1.08801 z"
         id="path384-4-2"
         sodipodi:nodetypes="ccccccccc" /><path
         style="fill-rule:evenodd;stroke-width:0.396289;fill:#000000;fill-opacity:1"
         d="m 140.49315,132.95049 c 0.12267,0.3144 -0.13152,0.80263 -0.009,1.41077 0.14096,-0.004 0.92927,-1.50826 0.42512,-1.88423 -0.0847,-0.0459 -0.72131,0.0467 -0.41612,0.47346 z"
         id="path27-0-5"
         sodipodi:nodetypes="cccc" /><path
         style="fill:#000000;fill-opacity:1;fill-rule:evenodd;stroke-width:0.396289"
         d="m 139.47576,132.07186 c -0.16223,-0.037 -0.10762,0.15336 -0.0445,0.22854 0.15313,0.26063 0.68233,0.38282 0.74301,0.34878 0.0124,-0.0349 0.25573,-0.49932 0.97347,-0.32331 0.041,-0.15909 0.0781,-0.46418 0.069,-0.62812 -0.25374,-0.0218 -0.46835,-0.20504 -0.56563,-0.41904 -0.26754,0.4647 -0.66994,0.65077 -1.17532,0.79315 z"
         id="path361-7-4"
         sodipodi:nodetypes="cccccccc" /><path
         style="fill:#000000;fill-opacity:1;fill-rule:evenodd;stroke-width:0.396289"
         d="m 141.2062,129.06334 c -0.36369,0.54229 -0.6065,0.24153 -0.53614,0.33058 0.1773,0.13038 0.17802,0.40717 0.39073,0.49042 0.15832,0.0429 0.18368,0.0166 0.31945,-0.0748 -0.114,-0.41151 -0.0252,-0.42795 -0.17404,-0.74619 z"
         id="path505-9-2"
         sodipodi:nodetypes="ccccc" /><path
         style="fill:#000000;fill-opacity:1;fill-rule:evenodd;stroke-width:0.380461"
         d="m 142.07252,128.74351 c 0.003,0.19259 -0.064,0.30618 -0.0574,0.49856 0.22997,0.54569 0.69472,0.48289 0.90986,1.65699 0.0166,-0.49519 0.12558,-0.99057 0.0581,-1.48624 -0.0388,-0.27664 -0.12736,-0.56406 -0.33489,-0.75243 -0.16164,-0.14982 -0.51871,-0.35118 -0.57576,0.0831 z"
         id="path503-4-1"
         sodipodi:nodetypes="ccccccc" /><path
         style="fill-rule:evenodd;stroke-width:0.396289;fill:#000000;fill-opacity:1"
         d="m 141.17052,128.52006 c 0.4498,0.61782 0.34008,0.92844 0.41211,1.23287 0.31373,-0.16746 0.3587,-1.23809 0.3439,-1.49887 0,0 -0.33891,-1.04319 -0.84624,-0.74663 -0.15822,0.0925 -0.1954,0.70127 0.0902,1.01263 z"
         id="path501-4-5"
         sodipodi:nodetypes="cccsc" /><path
         style="fill:#000000;fill-opacity:1;fill-rule:evenodd;stroke-width:0.396289"
         d="m 142.07733,128.34312 c 0.008,-9e-5 0.0597,-0.0673 0.20396,-0.054 -0.0408,-0.33171 -0.17077,-0.84386 -0.7097,-0.95954 0.21292,0.27566 0.30095,0.31452 0.50666,0.82335 0.0201,0.0841 0.002,0.14994 -9.2e-4,0.19018 z"
         id="path500-1-1"
         sodipodi:nodetypes="cccsc" /><path
         style="fill-rule:evenodd;stroke-width:0.396289;fill:#000000;fill-opacity:1"
         d="m 139.38305,129.08863 c 0.0181,0.30231 -0.0524,1.16889 -0.0648,1.47147 -0.1796,-0.17375 -0.65794,-0.74082 -0.76274,-0.88893 -0.1331,-0.17933 -0.20425,-0.49581 -0.45164,-0.26706 -0.52029,0.24462 -1.00444,0.33937 -1.54377,0.0792 -0.22303,-0.16681 -0.44192,-0.19326 -0.6856,-0.0604 -0.45495,0.147 -0.95836,0.27043 -1.26511,0.66846 -0.49327,0.86753 -0.36073,1.03229 0.33965,1.17813 0.5636,0.10168 1.80031,-0.23073 4.15769,0.26292 0.52078,0.069 1.08125,-0.21132 1.2823,-0.70626 0.17573,-0.34005 0.2126,-0.77749 -0.0224,-1.10077 -0.40681,-0.64852 -0.60742,-0.61178 -0.98354,-0.63678 z"
         id="path514-2-6"
         sodipodi:nodetypes="ccccccccccccc" /><path
         style="fill-rule:evenodd;stroke-width:0.396289;fill:#000000;fill-opacity:1"
         d="m 138.37346,127.87954 c -0.31431,-0.038 -0.47235,0.27412 -0.43309,0.54548 -0.0355,0.29906 0.20483,0.39552 0.41362,0.52384 0.25418,0.30811 0.4848,0.63932 0.73242,0.95332 0,-0.19246 0.004,-0.0805 0.004,0.0407 -0.005,-0.31911 0.0118,-0.63925 -0.0161,-0.9575 -0.089,-0.4412 -0.37146,-0.81167 -0.70116,-1.1058 z"
         id="path511-9-0"
         sodipodi:nodetypes="cccccccc" /><path
         style="fill:#000000;fill-opacity:1;fill-rule:evenodd;stroke-width:0.396289"
         d="m 140.49468,126.19892 -2.8e-4,1.4e-4 c -0.75283,0.1371 -1.32733,0.63379 -1.92773,0.76828 0,0.002 -1.2e-4,0.004 0.003,0.005 v 1.4e-4 c 0.16223,0.32302 0.27241,0.68804 0.24209,1.05153 l 0.3401,0.5437 c 0,0.002 0.003,0.003 0.003,0.005 0.72744,0.0169 1.38307,0.71543 1.7853,0.18807 0.0328,-0.0367 0.0349,-0.0226 0.0504,-0.0489 -0.49346,-0.63827 -0.44476,-1.55927 0.35309,-1.55681 -0.004,-0.30375 -0.38027,-0.93416 -0.84747,-0.95579 z"
         id="path497-4-0"
         sodipodi:nodetypes="ccccccccccccc" /><path
         style="fill:#000000;fill-opacity:1;fill-rule:evenodd;stroke-width:0.396289"
         d="m 118.18773,117.11991 c -0.99407,-0.19237 -1.74821,0.40304 -2.68738,0.63264 -0.43548,0.24624 -1.86437,0.37837 -0.80052,0.73979 1.55664,1.18987 2.27359,3.10453 3.08093,4.81882 0.63469,1.32863 0.65793,2.82645 0.79117,4.26387 0.41216,-0.58538 1.63872,-2.4777 2.22453,-3.21404 0.97117,0.36832 0.26395,0.4384 0.37068,0.94475 0.61597,-0.0563 1.40781,-0.0205 1.4043,-0.008 0.0896,0.0293 3.8556,1.27249 9.87867,4.64442 0.72905,0.16497 1.62028,1.43043 1.70696,0.1127 0.10411,-0.60367 1.41337,-0.80765 1.3733,-1.04634 -0.64303,-0.24345 0.0862,-0.88537 0.49979,-0.30999 0.4992,0.34701 1.21731,0.63141 1.77663,0.14825 -0.0851,-0.11636 -0.14786,-0.29114 -0.16588,-0.52189 -0.0477,-0.61124 0.52525,-0.98863 0.77474,-0.65647 0.0776,-0.10823 -0.0353,-0.56071 -0.20835,-0.79441 -0.46594,-0.87073 -1.57204,-0.17808 -2.37049,-0.47921 -0.82954,-0.16016 -1.75411,-0.064 -2.47784,-0.54743 -1.50445,-0.55947 -2.56662,-1.81589 -3.69032,-2.89935 -1.51235,-1.53866 -2.91754,-3.30817 -4.34457,-4.84006 0.23908,0.64846 0.63547,1.62825 0.33977,2.1623 -0.51434,-1.13342 -1.08254,-2.28254 -2.06034,-3.10114 -0.29709,-0.26407 -1.14434,-1.01076 -0.56397,-0.23689 0.23226,0.65202 1.32719,1.76968 0.69494,2.26135 -0.5709,-0.76993 -0.82462,-1.78484 -1.6351,-2.38179 -0.43818,-0.2811 -1.62514,-1.40661 -0.9924,-0.26576 0.21167,1.03845 -0.64856,0.52309 -0.65958,-0.1335 -0.0932,-0.18213 -0.17041,-0.39772 -0.27714,-0.57201 0.0254,0.96467 -0.94193,1.83856 -1.98253,1.27939 z"
         id="path495-7-2"
         sodipodi:nodetypes="cccccccccccccsccccccccccccccc" /></g><g
       id="g182"
       inkscape:label="Front leg"
       style="fill:#000000;fill-opacity:1"
       transform="translate(4.9435301e-4,4.44e-4)"><path
         id="path439-6-3"
         style="fill:#000000;fill-opacity:1;fill-rule:evenodd;stroke-width:0.396289"
         d="m 128.04128,154.02182 c -2.16365,1.74585 -6.87417,6.52438 -5.69371,9.44903 v 5.2e-4 c 5.38454,1.381 11.24102,2.48998 17.48989,2.31355 1.66392,-0.35551 2.60873,-1.36813 4.30517,-1.55907 0.86641,-0.0622 1.48398,-0.1456 2.34352,-0.26562 5.24917,-0.56896 6.89627,3.44316 6.98717,3.7269 0.21663,0.72756 0.50049,1.13095 0.73071,1.66088 l 0.38757,1.60352 c 0.0402,0.42722 0.0238,0.84302 0.005,1.83555 0.026,2.10065 0.49791,2.06854 0.88367,2.1177 -0.2052,-0.22233 0.25752,-0.49333 0.53795,-0.55604 0.16014,-0.0358 0.25762,0.19958 0.44235,0.28887 0.29038,-0.09 0.42169,-0.23029 0.48989,-0.24908 -0.20648,-0.0281 -0.43688,-0.0254 -0.56327,-0.0284 -1.78396,-0.0381 -1.12747,-3.69593 -0.8878,-3.65352 0,0 -0.44592,2.16716 0.51366,3.2706 0.27643,0.31787 0.72771,0.11056 1.26814,0.27647 -0.52776,-0.46054 0.37281,-1.21432 0.69711,-0.79737 0.0622,0.0799 0.16899,0.15658 0.16899,0.15658 0,0 0.17654,-0.0723 0.22221,-0.28887 -1.8644,-0.24075 -2.15343,-2.90493 -1.64435,-3.91811 -0.24928,2.89106 1.28067,3.97946 2.07429,3.46181 -0.86711,-0.66443 0.76565,-0.74393 0.87799,-0.56948 0.11723,-0.22287 0.29559,-0.54743 0.34209,-0.79478 -0.26144,0.23534 -2.54125,0.31864 -2.81429,-3.11919 0.37462,0.40795 0.69814,2.9624 2.39055,2.88509 -0.38207,-0.88681 0.84365,-1.14172 1.02784,-0.81545 0.15964,-0.30058 0.32187,-0.62243 0.31471,-0.96583 -0.48278,-1.51847 -1.28438,-2.93353 -2.10375,-4.27778 -0.70104,-1.24823 -0.77866,-2.37678 -1.45624,-3.63647 -1.20561,-1.03971 -2.31984,-0.55294 -4.66431,-1.57768 -0.61298,-0.10415 -1.14024,-0.44293 -1.68776,-0.71314 0.13091,0.18607 0.2803,0.36184 0.39223,0.56173 0.1209,0.14137 0.0157,0.38633 -0.18087,0.33589 -0.42995,-0.25911 -0.80346,-0.60307 -1.21078,-0.89606 -0.0748,-0.0305 -0.30815,-0.28063 -0.28629,-0.17312 0.0661,0.11771 0.0386,0.36791 -0.13539,0.32143 -0.34696,-0.10157 -0.5906,-0.41434 -0.91932,-0.56121 -0.38528,0.22764 -0.30817,0.34567 -1.22887,0.47904 -1.65577,0.48172 -6.34657,0.76763 -7.48016,0.23306 -0.1614,-0.0761 -0.0308,0.25667 -0.0667,0.32453 -0.0688,0.13028 1.43092,0.68335 0.76067,0.60358 -4.62636,-0.54994 -12.37552,-6.5606 -12.62972,-6.49004 z"
         sodipodi:nodetypes="cccccccccccsccccscccccccccccccccccccccccsccc" /><path
         style="fill:#000000;fill-opacity:1;fill-rule:evenodd;stroke-width:0.354381"
         d="m 155.70198,174.97076 c 0.4105,0.76642 1.54073,0.4023 1.54073,0.4023 -0.58034,-0.34644 -0.55793,-0.10456 -1.07442,-0.73438 -0.10431,-0.12719 -0.63219,0.0224 -0.46631,0.33208 z"
         id="path448-31-5"
         sodipodi:nodetypes="scss" /><path
         style="fill:#000000;fill-opacity:1;fill-rule:evenodd;stroke-width:1.38005"
         d="m 1256.5361,-331.18558 c -0.5862,-0.62087 -3.3926,0.69813 -1.0853,2.54675 2.8648,1.16442 2.8892,0.30112 5.507,-1.67577 0,0 -2.3627,1.30978 -4.4217,-0.87098 z"
         id="path447-5-4"
         sodipodi:nodetypes="sccs"
         transform="matrix(0.27769568,0,0,0.26701752,-191.07079,262.00449)" /><path
         style="fill:#000000;fill-opacity:1;fill-rule:evenodd;stroke-width:0.396289"
         d="m 159.54127,172.50493 c -0.076,-0.27625 -0.88296,-0.13186 -0.70326,0.1413 0.1317,0.20019 0.33473,0.43345 1.68735,0.40419 -0.0163,-0.11418 -0.84671,-0.046 -0.98409,-0.54549 z"
         id="path444-3-8"
         sodipodi:nodetypes="sscs" /><path
         style="fill:#000000;fill-opacity:1;fill-rule:evenodd;stroke-width:0.373042"
         d="m 160.37821,170.50521 c -0.34086,-0.0272 -0.56477,0.15342 -0.57358,0.50786 0.0341,0.19571 0.33159,0.24275 0.38208,0.24934 0.801,0.10469 1.33021,-0.0468 1.33021,-0.0468 -0.94112,-0.31108 -0.90085,-0.70708 -1.13871,-0.7104 z"
         id="path442-6-6"
         sodipodi:nodetypes="ccscc" /></g><g
       id="g181"
       inkscape:label="Hind leg"
       style="fill:#000000;fill-opacity:1"
       transform="translate(4.9435301e-4,4.44e-4)"><path
         style="fill:#000000;fill-opacity:1;fill-rule:evenodd;stroke-width:0.396289"
         d="m 147.34771,175.61776 c 0.0231,0.8352 0.23131,1.18152 0.62041,1.71552 0,0 1.7e-4,-1.00203 0.17179,-1.46157 0.28581,-0.76526 -0.80161,-0.59374 -0.7922,-0.25395 z"
         id="path453-3-3"
         sodipodi:nodetypes="scss"
         inkscape:label="path453-3-3" /><path
         style="fill:#000000;fill-opacity:1;fill-rule:evenodd;stroke-width:0.396289"
         d="m 148.98426,175.2612 c -0.1244,0.78328 0.40525,1.38076 0.89936,1.91125 -0.0277,-0.36921 -0.14632,-0.73738 -0.1602,-1.1064 0.29608,-0.99945 -0.61276,-1.32689 -0.73916,-0.80485 z"
         id="path452-0-0"
         sodipodi:nodetypes="cccc" /><path
         style="fill:#000000;fill-opacity:1;fill-rule:evenodd;stroke-width:0.372706"
         d="m 145.25356,174.58522 c -0.32688,0.82309 0.17931,1.45233 0.62137,2.09134 -0.0615,-0.69827 0.0859,-1.37184 0.20472,-2.0554 0.0241,-0.43791 -0.62746,-0.4689 -0.82609,-0.036 z"
         id="path450-9-5"
         sodipodi:nodetypes="cccc" /><path
         style="fill:#000000;fill-opacity:1;fill-rule:evenodd;stroke-width:0.379909"
         d="m 150.7684,174.48835 c -0.32953,0.80229 0.36585,1.36781 0.93221,1.81813 -0.0174,-0.0439 -0.17647,-0.43773 -0.37073,-0.91793 -0.11151,-0.2128 0.0419,-0.6109 0.0268,-0.79529 -0.0551,-0.27519 -0.53802,-0.20851 -0.58833,-0.10491 z"
         id="path449-0-0"
         sodipodi:nodetypes="ccccc" /><path
         style="fill:#000000;fill-opacity:1;fill-rule:evenodd;stroke-width:0.396289"
         d="m 145.43739,164.47055 c 0.47045,0.42665 0.94251,0.85499 1.36508,1.32978 0.56058,0.56413 0.75787,1.36429 0.87417,2.12423 0.30903,1.67998 -1.03032,2.6589 -1.75544,4.2028 -0.0911,0.17187 -0.89738,0.72449 -1.01082,1.25939 -0.14255,0.6722 -0.11326,1.13767 0.12475,1.3738 0.19116,-1.03856 1.68197,-0.86563 1.06114,0.30855 -0.062,0.1172 0.35552,0.0969 0.48915,0.12823 -0.11833,-0.78972 -0.62033,-1.17619 0.62545,-2.48383 0.221,-0.23197 0.35683,-0.29014 1.00969,-1.78593 -0.0983,0.5396 -0.26088,0.95971 -0.44514,1.30581 -0.7186,1.34975 -1.7671,1.57383 -0.62006,3.37024 -0.003,-0.69554 1.41278,-0.83092 1.23241,0.16228 0.10853,-0.0152 0.15444,-0.0476 0.25671,-0.087 -0.88786,-1.95386 -0.4133,-2.18368 0.14969,-2.96716 0.33883,-0.47154 0.8067,-1.04483 1.02335,-1.93661 -0.12979,1.4151 -0.4519,1.67378 -0.79891,2.13255 -0.64794,0.85663 -0.86225,1.10369 -0.27125,2.36352 0.0392,-0.86605 1.24456,-0.55117 1.25271,0.40057 v 0.0516 c 0.27201,-0.0277 0.37851,-9.8e-4 0.60804,-0.16169 -0.18101,-0.33957 -0.33668,-0.54415 -0.27495,-0.85392 -0.27139,-0.48226 -0.74445,-1.03864 -0.20112,-2.04873 0.26264,-0.4979 0.53775,-1.35037 0.56651,-1.90255 0.0309,0.0625 0.0542,0.10135 0.12464,0.51297 -0.0342,0.62522 -0.34906,1.15396 -0.563,1.8329 -0.24064,0.46675 0.0527,0.893 0.27016,1.35626 0.0393,-0.21727 0.22259,-0.33337 0.55004,-0.31944 0.61344,0.006 0.53363,0.49982 0.46857,0.94683 0.11599,-0.005 0.17461,0.0443 0.27605,-0.004 0.51719,-0.55133 0.79677,-1.28909 0.94419,-2.02978 l 0.85314,-3.45672 c -0.2406,-1.3721 -0.93599,-2.71657 -1.99832,-3.63943 -0.52668,-0.42489 -1.05191,-0.8732 -1.66662,-1.16724 -1.4654,-0.70186 -2.97411,-0.45573 -4.51998,-0.31838 z"
         id="path441-3-0"
         sodipodi:nodetypes="ccccscscscscccscsccccccccccccccccccc" /><path
         style="fill:#000000;fill-opacity:1;fill-rule:evenodd;stroke-width:0.396289"
         d="m 136.39883,150.30441 c -1.93527,0.367 -3.79451,1.07371 -5.28579,2.39282 -0.18118,0.62717 -0.44258,1.24496 -0.48986,1.90347 6.80096,5.04644 11.34298,5.21521 15.829,4.38745 -0.80452,-0.53989 -1.7336,-0.83424 -2.63533,-1.16532 -0.14915,-0.0277 -0.31354,-0.17895 -0.45967,-0.10979 -0.0711,0.15123 -0.21184,0.3547 -0.40439,0.25203 -0.64227,-0.44486 -1.43002,-4.9929 -6.55396,-7.66069 z"
         id="path432-4-5"
         sodipodi:nodetypes="sccccccss" /></g></g><metadata
     id="metadata185"><rdf:RDF><cc:Work
         rdf:about=""><dc:title>Nero ex Machina</dc:title><dc:date>13-08-2025</dc:date><dc:creator><cc:Agent><dc:title>Fanta</dc:title></cc:Agent></dc:creator></cc:Work></rdf:RDF></metadata></svg>
